<?xml version="1.0" encoding="UTF-8" standalone="no"?>
<svg
   xmlns:dc="http://purl.org/dc/elements/1.1/"
   xmlns:cc="http://creativecommons.org/ns#"
   xmlns:rdf="http://www.w3.org/1999/02/22-rdf-syntax-ns#"
   xmlns:svg="http://www.w3.org/2000/svg"
   xmlns="http://www.w3.org/2000/svg"
   xmlns:sodipodi="http://sodipodi.sourceforge.net/DTD/sodipodi-0.dtd"
   xmlns:inkscape="http://www.inkscape.org/namespaces/inkscape"
   width="30"
   height="30"
   viewBox="0 0 1792 1792"
   version="1.1"
   id="svg4"
   sodipodi:docname="de.svg"
   inkscape:version="1.0.2 (e86c870879, 2021-01-15)">
  <metadata
     id="metadata10">
    <rdf:RDF>
      <cc:Work
         rdf:about="">
        <dc:format>image/svg+xml</dc:format>
        <dc:type
           rdf:resource="http://purl.org/dc/dcmitype/StillImage" />
        <dc:title></dc:title>
      </cc:Work>
    </rdf:RDF>
  </metadata>
  <defs
     id="defs8" />
  <sodipodi:namedview
     pagecolor="#ffffff"
     bordercolor="#666666"
     borderopacity="1"
     objecttolerance="10"
     gridtolerance="10"
     guidetolerance="10"
     inkscape:pageopacity="0"
     inkscape:pageshadow="2"
     inkscape:window-width="1920"
     inkscape:window-height="1052"
     id="namedview6"
     showgrid="false"
     inkscape:zoom="13.983334"
     inkscape:cx="19.830283"
     inkscape:cy="10.657614"
     inkscape:window-x="1920"
     inkscape:window-y="0"
     inkscape:window-maximized="1"
     inkscape:current-layer="svg4"
     inkscape:document-rotation="0" />
  <path
     d="m 1664,416 v 960 c 0,79.3333 -28.1667,147.1667 -84.5,203.5 -56.3333,56.3333 -124.1667,84.5 -203.5,84.5 H 416 c -79.33333,0 -147.16667,-28.1667 -203.5,-84.5 C 156.16667,1523.1667 128,1455.3333 128,1376 V 416 C 128,336.66667 156.16667,268.83333 212.5,212.5 268.83333,156.16667 336.66667,128 416,128 h 960 c 79.3333,0 147.1667,28.16667 203.5,84.5 56.3333,56.33333 84.5,124.16667 84.5,203.5 z"
     id="path2"
     sodipodi:nodetypes="sssssssssssss" />
  <g
     aria-label="DE"
     id="text843"
     style="font-style:normal;font-weight:normal;font-size:955.733px;line-height:1.25;font-family:sans-serif;letter-spacing:0px;word-spacing:0px;fill:#ffffff;fill-opacity:1;stroke:none;stroke-width:59.7333">
    <path
       d="m 397.83353,625.10015 v 541.79975 h 113.86663 q 144.19994,0 210.93325,-65.3333 67.19997,-65.3333 67.19997,-206.26656 0,-139.99994 -67.19997,-204.86659 -66.73331,-65.3333 -210.93325,-65.3333 z M 303.5669,547.63351 h 193.66659 q 202.53326,0 297.26656,84.46663 94.7333,83.99997 94.7333,263.1999 0,180.13326 -95.19997,264.59986 -95.19996,84.4667 -296.79989,84.4667 H 303.5669 Z"
       style="font-size:955.733px;fill:#ffffff;stroke-width:59.7333"
       id="path850" />
    <path
       d="m 1039.4999,547.63351 h 440.5332 v 79.3333 H 1133.7666 V 833.2334 h 331.7999 v 79.3333 h -331.7999 v 252.4666 h 354.6665 v 79.3333 h -448.9332 z"
       style="font-size:955.733px;fill:#ffffff;stroke-width:59.7333"
       id="path852" />
  </g>
</svg>
