<svg height="30" viewBox="0 0 1792 1792" width="30" xmlns="http://www.w3.org/2000/svg"><path d="m1742.614 366.8662v1058.2676c0 87.454-31.0499 162.2309-93.1495 224.3307-62.0997 62.0996-136.8768 93.1495-224.3306 93.1495h-1058.26769c-87.45406 0-162.23095-31.0499-224.33067-93.1495-62.099734-62.0998-93.149602-136.8767-93.149602-224.3307v-1058.2676c0-87.45406 31.049868-162.23095 93.149602-224.33067 62.09972-62.099727 136.87661-93.149592 224.33067-93.149592h1058.26769c87.4538 0 162.2309 31.049865 224.3306 93.149592 62.0996 62.09972 93.1495 136.87661 93.1495 224.33067z" fill="none" stroke="#000" stroke-width="98.7719"/><g stroke-width="59.7333"><g fill="#fff"><path d="m397.83353 625.10015v541.79975h113.86663q144.19994 0 210.93325-65.3333 67.19997-65.3333 67.19997-206.26656 0-139.99994-67.19997-204.86659-66.73331-65.3333-210.93325-65.3333zm-94.26663-77.46664h193.66659q202.53326 0 297.26656 84.46663 94.7333 83.99997 94.7333 263.1999 0 180.13326-95.19997 264.59986-95.19996 84.4667-296.79989 84.4667h-193.66659z"/><path d="m1039.4999 547.63351h440.5332v79.3333h-346.2665v206.26659h331.7999v79.3333h-331.7999v252.4666h354.6665v79.3333h-448.9332z"/></g><g><path d="m356.31829 602.52441v586.95129h123.35582q156.217 0 228.5116-70.778 72.80016-70.7779 72.80016-223.456 0-151.66699-72.80016-221.93936-72.2946-70.77793-228.5116-70.77793zm-102.12244-83.92241h209.80601q219.41158 0 322.03958 91.50576 102.628 91.00019 102.628 285.13394 0 195.1449-103.13356 286.6506-103.13355 91.5058-321.53402 91.5058h-209.80601z"/><path d="m1051.4587 518.602h477.2454v85.94463h-375.123v223.45604h359.4508v85.94463h-359.4508v273.5061h384.2231v85.9447h-486.3455z"/></g></g></svg>