<svg height="11.904mm" viewBox="0 0 23.596645 11.904237" width="23.597mm" xmlns="http://www.w3.org/2000/svg"><path d="m-132.5 79.056c-.1628-.11271-.1628-.11271-.78868.17529-.17518-.0376-.35047-.06258-.51317-.08769-.81369-.4005-1.2643-.68846-2.178-.68846.025.60087.0501 1.2143.0876 1.8276-.0501 1.4771.71347 1.8025 1.2268 3.1043v1.7524c-.17529.0125-.33799.0376-.50068.0626-1.0015 1.0014-2.0779 1.1891-3.3548.62587-.1627-1.79 1.79-2.1029.62587-4.0931-.46307-.40046-.92625-.78857-1.3893-1.1765-.68849-1.2393-.68849-1.5897-1.039-2.103-.0877-.26281-.0877-.26281-.70098-.70098-.31298.18778-.62588.38808-.93886.58838-.0125.20027-.0125.41309-.0125.62588-.15017.02498-.30038.04999-.43806.08759.025.15021.05.30038.0751.45059-.42557.07517-.42557.07517-.60086.25039-.38797.38808-.48819.53828-1.039.61335v.33802h-.86367v.52566c-2.7038 0-3.242 2.9667-4.0931 4.9945-.15021-.0125-.28789-.0251-.42558-.0376-.0375-.0751-.0626-.15021-.0876-.22531-.67597.0626-1.2518.48819-1.9151.48819-.17529-.17529-.17529-.17529-1.4771-.35051.55078-2.6913 3.1795-2.8915 3.6176-5.7578 1.1141-2.2907 1.1141-2.2907 1.1642-2.7664-.3505 0-.52579.17522-1.5648.17522-.0625-.06262-.12509-.12513-.17518-.17522-.55077.2754-.60086.30042-.78857.8762-1.1517.35047-1.6148.10019-2.6913 0-.0375.07517-.0751.16276-.11267.25036-1.1391-.71347-1.6272-1.114-2.9541-1.1515-.025.12509-.0501.25029-.0626.37548-1.5521.77605-3.0417-.12519-4.6939-.35051-.77605-.58838-1.1516-.26288-2.0904-.26288-1.2267-.71347-1.6272-.85115-1.7524-2.2656 1.4269-.23787 1.5897-.92636 2.4284-2.0904 1.6023-1.0264 3.0543-1.2642 3.9305-3.1169.42558-1.9527 1.5521-3.3171 2.0904-5.2072.26288-.41298.5258-.82607.78857-1.2266.53829 0 .651 0 1.0766.30038.42558-.26288.86368-.52569 1.3017-.77608 3.5301-1.1015 5.8707-4.2307 9.7889-3.7802.30038-.30038 3.8928-.17529 4.6064-.17529v.35047c.43809 0 .68838-.17518.95126-.08759.87627 1.1642 5.1698 2.0278 6.6094 2.178.6384.93885 1.502 1.1891 2.6036 1.5647.0501-.06258.11271-.1252.17529-.17529 1.6898.38808 1.6898.38808 2.178.35051v.33799c1.377.1252 2.0029.31297 3.0793 1.139-.0876.1628-.16266.3255-.23777.50078 2.1279 1.3269 3.1919 2.4283 5.4199 1.1516.68849 0 .86378-.17518 1.3895-.17518.17529.17518 2.4284.77605 3.1294 1.1266 1.0138 1.1266 1.79 2.8665 3.5548 2.8665-.1252.77605-.60087.87616-1.3018.87616-.0375.0877-.0751.17529-.10008.26288-1.9402.25039-3.5552-1.3144-4.8819-2.491-.75107-.12509-1.4521-.47556-2.1405-.56326-.31291.21279-.31291.21279-.96387.35047.13769 1.1892 1.4145 1.8651 2.0904 2.8665-.4381.1252-.4381.1252-.52569.35058.17519.28789.35051.57578.52569.86368-.25028.3255-.33798.36299-.26281.78857h-.26288c0 .48819-.0125 1.3645.17519 1.8275-.11257.11271-.22528.22538-.33799.35051.0376.13768.0752.28786.1252.43817-1.3269 1.2642-.98888 1.84.82618 1.9902 1.1016 1.4521.53828 3.4799.77608 5.3074.37559.37559.27537 1.79-.0626 2.2281-.21278-.0501-.42557-.10008-.62587-.15018-.025.13769-.05.27537-.0751.42558-.66337.33798-1.2892.62587-2.0153.62587-.025-.2003-.0375-.38807-.05-.57578-.2754.18771-.55081.37548-.81369.57578 0-.83866.1252-1.7023.87627-2.1655 1.3143-2.8665.26281-4.2184-2.8791-3.9178-.17519-.17529-.17519-.17529-1.8275-.52576 0 .70098.0376 1.0015-.35047 1.5773-1.2142.72596-2.1029 1.5271-3.1294 2.5035-.23776.5633-.51317 1.8525-1.3894 1.5647-.0375-.0751-.0625-.15021-.0876-.22531-.87616.4757-2.5661 1.039-3.3797.22531.28786-.62587.57575-1.2393.86364-1.8525 1.9903-1.0265 3.1294-1.2894 3.1294-3.6176-.81369-.47567-1.6148-1.5146-2.3282-1.8526-.10022.15017-.18781.30048-.2754.46318-.60087.10008-.80117.25039-1.2769.63836-.1627-.0751-.31287-.15021-.46308-.21279z" fill="none" stroke="#373737" stroke-width=".95274" transform="matrix(.42184 0 0 .41134 69.797 -24.054)"/></svg>