<svg height="422.5" viewBox="0 0 565.5603 422.50414" width="565.56" xmlns="http://www.w3.org/2000/svg"><g stroke-miterlimit="10" stroke-width="2.0001" transform="matrix(1.3333 0 0 -1.3333 -114.96 806.21)"><path d="m311.85 467.74c-.4615.3195-.4615.3195-2.2357-.4969-.4966.1066-.9935.1774-1.4547.2486-2.3066 1.1353-3.5839 1.9516-6.1742 1.9516.0709-1.7033.1421-3.4421.2484-5.1808-.1421-4.1871 2.0225-5.1095 3.4775-8.7999v-4.9677c-.4969-.0355-.9581-.1066-1.4193-.1775-2.8389-2.8386-5.8904-3.3709-9.51-1.7742-.4612 5.0743 5.0743 5.9613 1.7742 11.603-1.3127 1.1352-2.6257 2.2354-3.9384 3.3352-1.9517 3.513-1.9517 4.5065-2.9452 5.9615-.2486.745-.2486.745-1.9871 1.9871-.8872-.5323-1.7742-1.1001-2.6614-1.6679-.0355-.5677-.0355-1.171-.0355-1.7742-.4257-.0708-.8515-.1417-1.2418-.2483.0708-.4258.1417-.8515.2128-1.2773-1.2064-.2131-1.2064-.2131-1.7033-.7098-1.0998-1.1001-1.3839-1.5259-2.9452-1.7387v-.9582h-2.4483v-1.4901c-7.6646 0-9.1902-8.4099-11.603-14.158-.4258.0354-.8161.0711-1.2064.1065-.1063.2129-.1775.4258-.2484.6387-1.9162-.1775-3.5484-1.3839-5.4289-1.3839-.4969.4969-.4969.4969-4.1873.9936 1.5613 7.6291 9.013 8.1966 10.255 16.322 3.1581 6.4936 3.1581 6.4936 3.3001 7.8421-.9936 0-1.4905-.4967-4.4357-.4967-.1771.1775-.3546.3547-.4966.4967-1.5613-.7807-1.7033-.8516-2.2354-2.4838-3.2647-.9935-4.5774-.284-7.6292 0-.1063-.2131-.2128-.4614-.3194-.7097-3.229 2.0225-4.6128 3.158-8.3741 3.2643-.0709-.3546-.1421-.7095-.1775-1.0644-4.3999-2.1999-8.6224.3549-13.306.9936-2.1999 1.6679-3.2644.7452-5.9258.7452-3.4773 2.0225-4.6128 2.4128-4.9677 6.4225 4.045.6743 4.5065 2.626 6.8839 5.9258 4.542 2.9097 8.6582 3.5838 11.142 8.8356 1.2064 5.5355 4.3999 9.4031 5.9258 14.761.7452 1.1707 1.4905 2.3417 2.2354 3.4772 1.5259 0 1.8454 0 3.0518-.8515 1.2064.7452 2.4483 1.4902 3.6901 2.2 10.007 3.1226 16.642 11.993 27.749 10.716.8515.8515 11.035.4969 13.058.4969v-.9935c1.2419 0 1.9514.4966 2.6966.2483 2.484-3.3001 14.655-5.7484 18.736-6.1742 1.8097-2.6614 4.2579-3.3709 7.3806-4.4356.142.1774.3195.3549.4969.4969 4.7903-1.1001 4.7903-1.1001 6.1741-.9936v-.9581c3.9033-.3549 5.6776-.8872 8.729-3.2289-.2483-.4615-.4611-.9227-.674-1.4196 6.0321-3.7613 9.0482-6.8837 15.364-3.2644 1.9517 0 2.4486.4966 3.9388.4966.4969-.4966 6.8839-2.1999 8.871-3.1935 2.874-3.1935 5.0743-8.1258 10.077-8.1258-.3549-2.1999-1.7033-2.4837-3.6904-2.4837-.1063-.2486-.2129-.4969-.2837-.7452-5.5001-.7098-10.078 3.7259-13.839 7.0614-2.1291.3546-4.1162 1.3481-6.0678 1.5967-.887-.6032-.887-.6032-2.7323-.9935.3903-3.371 4.0098-5.2872 5.9258-8.1258-1.2419-.3549-1.2419-.3549-1.4902-.9938.4966-.8161.9936-1.6322 1.4902-2.4483-.7095-.9227-.9581-1.029-.745-2.2354h-.7452c0-1.3839-.0354-3.8679.4966-5.1806-.3191-.3195-.6386-.6389-.9581-.9936.1066-.3903.2132-.816.3549-1.2421-3.7613-3.5838-2.8032-5.216 2.342-5.6418 3.1227-4.1162 1.5259-9.8646 2.2-15.045 1.0647-1.0647.7806-5.0743-.1775-6.3161-.6032.142-1.2064.2837-1.7742.4257-.0708-.3903-.1417-.7806-.2129-1.2064-1.8805-.9581-3.6547-1.7742-5.7129-1.7742-.0709.5678-.1063 1.1001-.1417 1.6322-.7807-.5321-1.5614-1.0644-2.3066-1.6322 0 2.3774.3549 4.8257 2.484 6.1387 3.7256 8.1258.745 11.958-8.1615 11.106-.4966.4969-.4966.4969-5.1806 1.4904 0-1.9871.1066-2.8389-.9935-4.4711-3.4419-2.0579-5.9613-4.329-8.8711-7.0968-.674-1.5968-1.4547-5.2515-3.9387-4.4354-.1063.2129-.1772.4258-.2483.6387-2.4837-1.3485-7.2743-2.9452-9.5805-.6387.816 1.7742 1.6321 3.513 2.4482 5.2515 5.6421 2.9098 8.8711 3.655 8.8711 10.255-2.3066 1.3484-4.5774 4.2936-6.5999 5.2517-.2841-.4257-.5324-.8518-.7807-1.313-1.7033-.2837-2.2711-.7098-3.6196-1.8096-.4612.2129-.8869.4258-1.3127.6032z" fill="none" stroke="#383330"/><path d="m174.66 510.93c.2192.6018.3583 1.2127.4173 1.8323.059.6197.0714 1.2555.0369 1.9077-.0462.5451-.11 1.1305-.1908 1.755-.0808.6247-.1383 1.2631-.1729 1.9151-.0185.4127-.0888.7446-.2118.9961-.1227.2514-.2979.4223-.5252.513-.3745.1284-.8337.1262-1.378-.007-.5442-.1329-1.1486-.2701-1.8124-.4113-.2393-.0161-.4921-.0524-.7574-.1088-.2657-.0564-.5383-.0797-.8181-.0698-.4791-.0323-1.0253.008-1.639.1199-.6137.1126-1.2226.3649-1.8264.7569-.644.4184-1.2311 1.057-1.7606 1.9159-.5295.8592-.8631 2.0203-1.0006 3.483-.1494 1.356-.0862 3.018.1896 4.985.2761 1.9669.8499 4.3273 1.7221 7.0803l.9663-.6276c-.203-.841-.347-1.5916-.4323-2.2518s-.1247-1.2495-.1185-1.7688c.1191-1.0505.4825-1.6583 1.0905-1.8241.6078-.1658 1.4386.2106 2.4925 1.1285.7645.6482 1.7584 1.0329 2.9818 1.1542 1.2234.1211 2.3584-.1579 3.405-.8379.2418-.1567.4802-.3401.7157-.5505.2356-.21.4479-.4337.6372-.6712.6764-.8972 1.1036-2.0903 1.2813-3.5793.1777-1.4891-.066-3.3625-.7311-5.6206 2.7876 2.8826 5.6844 4.4785 8.6894 4.7878 3.0053.3092 5.7557-.3467 8.2516-1.9676.5636-.3659 1.1112-.7787 1.6424-1.2384.5315-.4595 1.0469-.9661 1.5463-1.5191 2.9293-3.333 4.6219-7.9092 5.078-13.728.4561-5.8195-1.374-11.942-5.4904-18.369-.0783-.1208-.1568-.2416-.2353-.3623-.0782-.1208-.1568-.2415-.2353-.3623-4.7619-6.9806-9.7523-11.338-14.97-13.071-5.218-1.7337-10.003-2.1608-14.354-1.2812-2.0282.4016-3.9025.9751-5.6223 1.7197-1.7197.7447-3.2238 1.5353-4.5121 2.3721-.0805.0521-.1713.1111-.2716.1763-.1006.0655-.2115.1375-.3322.2157 0 0-.0201.0133-.0604.0394s-.0805.0522-.1208.0782c-.0402.0261-.1006.0655-.1811.1177-.0805.0524-.1409.0915-.1811.1176-5.5494 4.2336-8.9104 8.8631-10.083 13.888-1.1721 5.025-1.0638 9.5765.3249 13.654.3098.8291.6531 1.622 1.0298 2.3788.377.7569.7878 1.4772 1.2322 2.1617 1.124 1.7309 2.4047 3.1743 3.8421 4.33 1.4375 1.1556 2.9325 1.9159 4.4858 2.2807-.006.5193-.0119.995-.0172 1.4278-.005.4326.0161.8623.0646 1.2889 0 0-.004.0165-.0108.0496-.007.0335.003.0701.0286.1103.0222.3864.0341.7793.0358 1.1787.002.3994-.0134.8384-.0457 1.3175l.9661-.6273c.006-.5193.005-1.0052-.003-1.4579-.008-.4529-.002-.8855.0159-1.298.004-.3461.0247-.6888.0621-1.0278s.0782-.6945.1227-1.067c.9536.4111 1.9432.6129 2.9685.605 1.0252-.008 2.0792-.1911 3.162-.5511l-.5882-.9057c-.1069.0122-.2066.034-.3005.0664-.0938.032-.1936.0541-.3004.0663-.7606.1505-1.5832.184-2.4676.1001-.8841-.0839-1.7569-.3042-2.6181-.6608.1857-1.0361.4788-1.8848.8793-2.5455.4009-.6608.883-1.1744 1.4466-1.5404.7647-.4966 1.6242-.826 2.5781-.9875.9541-.1613 1.9309-.3096 2.931-.444.1069-.0121.2302-.0204.3699-.0255.1398-.005.2631-.0133.3696-.0255l8.316-.6786zm-18.11 6.3522c-.1591-.0683-.4003-.1979-.7243-.3881s-.6973-.4345-1.1194-.7325c-.5675-.4328-1.1704-.9428-1.8091-1.5295-.6386-.5868-1.2064-1.2629-1.703-2.0277-.1568-.2415-.3036-.4895-.4402-.7441-.1367-.2548-.2634-.5159-.3802-.7835-.788-2.0066-.5485-4.4801.7186-7.4205 1.2668-2.9401 4.7858-6.313 10.556-10.118.5636-.3659 1.1537-.735 1.7708-1.1069.6168-.3719 1.2606-.7472 1.9307-1.1251 8.4495-5.144 14.915-7.5257 19.398-7.1456 4.4824.3802 8.0305 2.5832 10.645 6.6087 2.9282 4.5085 3.8288 8.2307 2.7015 11.166-1.1271 2.9352-4.3073 6.1024-9.5406 9.5008-2.5764 1.6731-4.9791 3.0189-7.2079 4.0371-2.2292 1.0183-3.7619.8833-4.5984-.4047-.2356-.3623-.3991-.857-.4915-1.484-.0924-.6267-.093-1.3989-.002-2.3165 1.7183-.0858 3.2658-.3469 4.6426-.7829 1.3768-.4359 2.6081-1.0071 3.6952-1.713 2.7233-1.7112 4.485-3.9999 5.2849-6.866.8002-2.8661.7611-5.4162-.1173-7.6502-.0907-.2273-.2041-.4683-.3408-.7231-.1369-.2545-.2837-.5026-.4405-.7441-.1828-.2818-.3928-.5607-.629-.8365-.2361-.2758-.4991-.5485-.7888-.8184-1.5954-1.3107-3.17-2.105-4.7246-2.3833-1.5542-.2784-2.9984-.2991-4.3327-.0621-1.1208.2126-2.1467.5496-3.0776 1.0114-.9309.4615-1.6781.8751-2.2419 1.241l.6276.9663c2.5177-1.2347 4.646-1.9012 6.3847-2.0001 1.7385-.0989 3.1241.1174 4.1562.6491.3438.1772.6477.3807.9111.6101.2636.2293.4869.4853.6698.767.4445.6843.6123 1.4054.5031 2.1628-.1088.7578-.5054 1.3587-1.19 1.8032-.3622.2352-.7905.4133-1.2843.5334-.4941.1205-1.067.1639-1.7192.1293-.3462-.004-.6889-.0249-1.0276-.0624-.339-.0374-.6817-.0581-1.0278-.0623-1.3442-.0425-2.7287-.0595-4.1534-.0499-1.4244.009-2.8102.0791-4.1564.2095-1.6659.1664-3.2505.4368-4.7529.8115-1.5023.3748-2.817.9281-3.9441 1.66-.3623.2353-.695.4944-.9978.7767-.303.2826-.5893.5686-.8592.8583-1.1616 1.3842-2.0834 3.0271-2.7654 4.9295-.6821 1.9023-1.1671 3.7769-1.4556 5.6242-.214 1.169-.3603 2.2657-.4391 3.2899-.0788 1.0241-.1165 1.9358-.1128 2.7346zm44.679 27.726c.4734.2393.9873.5037 1.5417.7937.5548.29 1.0968.6004 1.626.9309 1.5469.9666 3.1558 2.2408 4.8274 3.8234 1.6716 1.5823 3.1156 3.5739 4.3316 5.9754.3107.5899.5981 1.1943.8626 1.8125.2648.6182.4938 1.2705.6871 1.9573 1.211-.0357 2.3037-.1312 3.278-.2863.9746-.1553 1.8712-.345 2.6904-.5689 2.1622-.743 3.8245-1.8411 4.987-3.2936 1.1624-1.4527 2.3592-3.2096 3.5903-5.2701.2035-.326.4136-.6617.6296-1.0078.2163-.3458.4388-.7021.6678-1.0683.2288-.3666.4678-.7266.7172-1.08.2495-.3538.4757-.6934.6792-1.0191.229-.3662.4552-.7058.6792-1.0188.2239-.3129.4374-.6321.6409-.9581 1.2464-1.9944 1.9587-4.0399 2.1365-6.1361.1777-2.0963-1.1452-4.5077-3.9694-7.2349-.3155-.3104-.627-.7172-.9352-1.2209-.3078-.5037-.6168-1.0508-.9272-1.641-.3869-.9207-.6899-1.9306-.9085-3.0296-.2188-1.099-.2979-2.1955-.2369-3.2893-.417.3052-.9922.5686-1.7249.79-.7325.2214-1.5772.3727-2.5336.4544-1.1143.1527-2.2972.2341-3.549.2446-1.2515.0102-2.4727-.0734-3.6632-.2517-.9363-.1321-1.8343-.3254-2.6944-.5797-.8597-.2543-1.6154-.5851-2.2665-.9919l-.6106.9769c.6919.4325 1.0582 1.1143 1.0993 2.0452.0408.9311-.2313 1.8649-.8164 2.8012zm17.73 3.6924c-.7884 1.2617-1.7553 2.016-2.8999 2.2632-1.1449.2469-2.2133.2585-3.2054.0346-.5496-.1171-1.0471-.2721-1.4922-.4655-.445-.1933-.8305-.3917-1.1562-.5952l10.836-17.341 8.1434-.2605zm-17.591 5.7334c-1.9131.1627-3.4738.532-4.682 1.1069-1.2084.5749-2.0542 1.2495-2.5375 2.0228-.5851.9363-.6753 1.9412-.2708 3.0147.4048 1.0732 1.2583 2.0171 2.5609 2.8312 1.2211.7631 2.3711 1.0287 3.4497.7971s1.931-.8028 2.5566-1.7135c.178-.2849.3282-.6157.4501-.9922.1222-.3767.1908-.7582.2061-1.1449.1222-.8291.0417-1.7427-.2406-2.7399-.2824-.997-.7801-2.058-1.4925-3.1822zm11.052 6.9057c-1.1344-.0861-2.2195.0423-3.255.3858-1.0352.3436-1.9244.7926-2.6671 1.3473-.3002.2084-.5698.4363-.809.6832-.239.2466-.4476.5128-.6256.7974-.5344.8549-.6806 1.7682-.4385 2.74.2417.9717 1.034 1.8773 2.3774 2.7167 1.5468.9666 2.8468 1.3544 3.9002 1.1636 1.053-.1908 1.8467-.7138 2.3811-1.5687.127-.2035.2505-.4235.3699-.6602.1193-.2364.2151-.5023.2863-.7974.2897-1.0074.3101-2.1271.0606-3.3582-.2494-1.2311-.7761-2.3811-1.5803-3.4495zm29.111.9961-4.3141-1.4017-.3336 1.027c1.8901 1.0179 3.4294 2.8432 4.6182 5.4751 1.1889 2.632 1.9908 5.328 2.4066 8.0875.2704 1.6524.4193 3.2148.4453 4.6871.0264 1.4723-.0779 2.7253-.3129 3.7593l1.5749.5117 4.5389-13.969 7.0531 2.2918 1.5795-4.862-7.0529-2.2915 5.273-16.229c.4794-.8537 1.0247-1.4839 1.6365-1.8909.6117-.4068 1.2826-.4916 2.0131-.2543.5477.178 1.135.5457 1.7615 1.1024.6267.5567 1.2852 1.326 1.9757 2.3074l.8354-.94c-1.1208-1.6764-2.0427-3.1116-2.7649-4.305-.7226-1.1936-1.3915-2.3196-2.0067-3.3774-.0306-.0604-.0654-.1095-.1034-.1472-.0383-.0377-.0499-.0793-.0352-.125-.4921-.8158-.9879-1.6582-1.4879-2.5273s-1.0876-1.8173-1.7634-2.8443c-.9196.8115-2.0146 1.5409-3.2848 2.188-1.2702.6472-2.5339 1.1197-3.7916 1.4176-.9394.2501-1.8451.3975-2.7176.442-.8728.0448-1.6055-.0295-2.1988-.2223l-.334 1.027c1.3697.4451 2.1708 1.0083 2.4035 1.6895.233.6814.1715 1.5698-.1845 2.6654zm29.041 8.6446-4.5022-.5528-.1316 1.0721c2.0495.6386 3.9087 2.1362 5.5781 4.4932 1.6693 2.3567 2.9709 4.8503 3.9055 7.4798.5808 1.5704 1.0248 3.0756 1.3315 4.5158.3067 1.4403.4433 2.6901.4101 3.75l1.6436.2018 1.79-14.579 7.3608.9037.623-5.0737-7.3607-.904 2.0795-16.937c.3076-.9295.7228-1.6523 1.2455-2.1682.523-.5162 1.1656-.7277 1.9276-.6339.5717.0701 1.2183.3189 1.9397.7458.7212.4269 1.5143 1.0565 2.3797 1.8882l.6407-1.082c-1.4202-1.4318-2.5988-2.6648-3.5357-3.6986-.9368-1.0335-1.8085-2.0112-2.6141-2.9322-.0417-.0536-.0853-.0952-.1298-.125s-.0641-.0683-.0584-.1159c-.6387-.707-1.2861-1.4392-1.9426-2.1972-.6568-.7577-1.4145-1.576-2.2737-2.4553-.748.972-1.6838 1.8969-2.8071 2.7745-1.1234.8776-2.2737 1.5826-3.4515 2.1152-.8745.4247-1.7354.7421-2.5832.9522-.8481.2103-1.5817.2775-2.2011.2015l-.1315 1.0718c1.4292.1755 2.323.5754 2.6815 1.1999.3586.6242.4678 1.508.3274 2.6515zm23.828 3.2394-.5559 1.1619c.5811.2778 1.1866.5913 1.8167.9403.6302.3492 1.2612.7342 1.8924 1.1554 1.1662.7957 2.3216 1.6636 3.466 2.6039 1.1446.9402 2.2065 1.9536 3.1855 3.0407 1.0798-1.4111 2.3398-2.789 3.7806-4.1346 1.4409-1.3453 3.1615-2.4676 5.1619-3.3667l-.0201-1.1517c-.1432.0504-.2866.0771-.4306.0796-.144.002-.2639.005-.36.006-.959.0646-1.6954-.1866-2.2093-.7538-.5142-.5669-.8493-1.2092-1.0061-1.9267-.0493-.0952-.0754-.2027-.0773-.3226-.002-.1199-.005-.252-.007-.396l-.2866-16.413c-.0193-1.1038.1811-2.0075.6009-2.7108.4198-.7035.9417-1.0607 1.5656-1.0715.3841-.007.7699.1063 1.158.3396.3883.2336.7784.5868 1.1707 1.0599l1.1418-.5961c-1.5568-1.1727-2.8469-2.2068-3.8707-3.1009-1.0239-.894-1.9979-1.6934-2.9223-2.3972-.5842-.47-1.1562-.9162-1.7155-1.3385-.5596-.4221-1.2022-.7952-1.9278-1.1183-.0488-.0471-.1097-.0944-.1826-.1409-.0728-.0468-.1576-.0935-.2545-.1397-2.2323 1.3833-3.6233 2.8238-4.1732 4.3217-.5499 1.4975-.8102 3.0863-.781 4.7661l.347 19.869c.0167.9598-.1278 1.6223-.4334 1.9877-.3059.3653-.6747.5519-1.1064.5595-.1919.003-.3965-.0173-.6134-.0615-.2166-.0439-.4453-.0881-.6863-.1318-.0969-.0462-.2058-.0927-.3265-.1383-.1208-.046-.2537-.0919-.3983-.1372-.1448-.0454-.3019-.1026-.4711-.1718-.1695-.0692-.3263-.1264-.4711-.1718zm8.6731 10.074c-1.6097 1.2764-2.764 2.5446-3.4622 3.8052-.6982 1.2603-1.0378 2.4185-1.0193 3.4741.0241 1.3918.5595 2.5107 1.6066 3.3565 1.0472.8459 2.4585 1.2532 4.2342 1.2223 1.5358-.0269 2.6912-.515 3.4667-1.4646.7756-.9496 1.1767-2.0489 1.2028-3.2976-.005-.288-.0343-.5754-.0871-.8626-.053-.2871-.1057-.5502-.1578-.7894-.3552-1.0981-1.0095-2.1427-1.963-3.1343-.9533-.9912-2.2272-1.7611-3.8209-2.3096zm35.343-15.62 13.674 5.1318c.2716-.4705.557-.9816.8564-1.5338.299-.5525.5952-1.1163.8883-1.6917.6449-1.1169 1.3833-2.209 2.2153-3.2769.832-1.0678 1.849-1.862 3.0512-2.383l-.2982-1.1126c-1.3445.3602-2.4792.3909-3.4041.0921-.925-.2988-1.6418-1.3986-2.1512-3.2995l-3.8203-14.257c-.0371-.1392-.0776-.2897-.121-.4521-.0437-.1624-.0669-.3424-.0703-.5403-.14-.7078-.1338-1.3802.0184-2.0174.1525-.6372.5933-1.0783 1.3227-1.3235.371-.0992.7982-.127 1.2821-.0825.4841.0442 1.0771.1709 1.7793.3804l.4073-.7055-12.71-5.9862c-1.948 2.5594-3.0246 4.6615-3.2298 6.3068-.205 1.6452-.1276 3.1399.2327 4.4847l4.845 18.082c.3231 1.2056.3843 2.0837.1839 2.6342-.2001.5505-.5553.8944-1.0652 1.031-.3246.087-.6795.1074-1.0644.0615-.385-.0459-.794-.1349-1.2272-.2676-.3276-.1108-.6618-.2449-1.0023-.4022-.3401-.1574-.6806-.3144-1.0207-.472l-4.6962-17.526c-.0496-.1851-.1023-.3824-.1582-.591-.0561-.2086-.0918-.4351-.1077-.6794-.0655-.4295-.0351-.8726.0913-1.3286.1264-.4564.4428-.8519.9493-1.1863l-.2795-1.0432c-1.1874.0198-2.5534-.2103-4.0983-.6908-1.5452-.4805-3.3361-1.7399-5.3731-3.778-.076 1.0142-.4311 2.0534-1.0652 3.1178-.6342 1.0644-1.351 2.0514-2.151 2.9616-.5836.6035-1.1593 1.143-1.728 1.6183-.5683.4754-1.072.8215-1.5106 1.0384l.2795 1.0434c1.1129-.2982 2.0906-.3118 2.9336-.0408.8428.271 1.4879 1.2413 1.9349 2.9103l3.9507 14.744c.0499.1854.091.3858.1236.6006.0329.2149.0802.438.1423.6699.0348.6865-.027 1.3368-.1854 1.9505-.1587.614-.5159.9955-1.0724 1.1446-.3585.1457-.8039.1531-1.3356.0224-.5318-.1307-1.1801-.4167-1.9443-.858l-.277 1.1922 11.667 6.266c1.8933-1.6506 3.2171-3.2474 3.9714-4.7911.754-1.5438.8764-3.2661.3671-5.1673zm49.765-13.812c-.13708.42149.2826-1.2237.481-2.0835.1985-.8597.5066-1.8164.9238-2.8695.5344-1.4094 1.3244-2.9078 2.3701-4.4952s2.4868-3.0398 4.324-4.3574l-.6106-.9768c-.9363.5851-1.8383.9079-2.7057.9689-.8674.0609-1.6826-.519-2.4457-1.7402l-10.49-16.78c-.4325-.6919-.6423-1.3674-.6295-2.0262.013-.6588.0626-1.3266.1491-2.0035.0153-.0658.0201-.1259.0153-.1792-.005-.0535 0-.1134.0153-.1794.0204-.239.0507-.4847.0915-.7364.0409-.252.0712-.4975.0919-.7365.0204-.6922-.0814-1.421-.3053-2.1866-.2237-.7657-.5774-1.5356-1.0604-2.3089-.3053-.4884-.6577-.9615-1.0571-1.4195-.3994-.4581-.8331-.8802-1.3011-1.2671-1.9738-1.7096-4.6539-2.7377-8.0399-3.0841-3.3863-.3461-7.3179.8796-11.796 3.6776-.0817.0508-.163.1015-.2444.1525-.0816.0511-.1627.1018-.2443.1526-.0814.051-.1627.1017-.2441.1527-.0816.0508-.1627.1015-.2443.1525-3.2565 2.035-5.3008 4.0624-6.1328 6.0821-.8322 2.0199-.9635 3.7573-.3937 5.2126.0765.1222.1426.2506.1984.3855.0559.1349.1222.2633.1984.3855.7631 1.2212 1.8647 2.0327 3.3044 2.435 1.44.4019 2.8519.1706 4.2358-.6942.0408-.0255.0816-.0511.1222-.0763.0408-.0255.0816-.051.1221-.0762 0 0 .0204-.0128.061-.0383.0408-.0255.0816-.051.1222-.0763 1.2415-1.0023 2.0684-2.1699 2.4808-3.5027.4122-1.3332.3002-2.5087-.3356-3.526-.0762-.1222-.1689-.2481-.2783-.3779-.1097-.1298-.2228-.2429-.3396-.3396-.5446-.5091-1.2963-.8742-2.2553-1.0956-.9589-.2214-2.1155-.1922-3.4687.0876 0 0-.0128-.0204-.0383-.0612-.2441-.3002-.1117-.7226.3971-1.2668.5088-.5443 1.211-1.0965 2.1065-1.656.4478-.2798.9388-.5582 1.4731-.8354.5344-.2775 1.071-.5281 1.6104-.7517 1.5366-.6205 3.09-1.0109 4.6596-1.171 1.5695-.1602 2.774.2052 3.6136 1.0956.2849.2746.5493.5621.7937.8623.244.3004.4552.593.6332.8778.5851.9363.9185 1.8318.9995 2.6864.0814.855.089 1.7275.0227 2.6178.005.2801-.006.5559-.0343.828-.0283.2724-.0601.561-.0955.8663-.0765 1.2365-.0298 2.5795.1409 4.0297.1703 1.4502.8529 3.1318 2.0486 5.0451-1.1705-.0612-2.2604-.1301-3.2704-.2063-1.0099-.0766-2.006-.1761-2.988-.2982-.4527 0-.8917-.023-1.3164-.0686-.4246-.0459-.856-.1018-1.2934-.1681-.6106-.0715-1.2478-.1403-1.912-.2064-.6639-.066-1.347-.163-2.0492-.29-.0405.0253-.0649.0545-.0725.0876-.008.0332-.0114.0496-.0114.0496-.9924 1.5826-1.7059 3.2026-2.1413 4.8614-.4351 1.6589-.0371 3.7449 1.194 6.2584l8.7372 13.983c1.0174 1.628 2.1317 2.5733 3.3426 2.8355 1.211.2622 2.6127.2636 4.2052.004 1.7655-.2543 3.8223-.5633 6.1705-.9267 2.3482-.3637 5.1454-.2577 8.3914.3175zm-6.1506-8.892c-.4578.6259-.8549 1.2135-1.1909 1.7629-.3356.5496-.6309 1.0737-.8852 1.5721-.2798.458-.519.8903-.7177 1.2974-.1985.4073-.3969.8141-.5953 1.2211-.0153.0661-.0372.1222-.0649.1679-.0278.0459-.0496.102-.0649.1678l-11.4-18.25c-.4833-.7735-.7744-1.5114-.8736-2.2135-.0992-.7022.1159-1.2187.6449-1.5492.4478-.2798 1.0851-.4374 1.9119-.4731.8269-.0354 1.9347.1072 3.3237.4278zm41.872-23.686-4.2049-14.149-18.108 5.247c-1.4255-2.384-2.1189-4.5134-2.0798-6.3873.0391-1.874.5239-3.456 1.4545-4.7458.0581-.1403.1267-.2557.2052-.3461.0788-.0907.1656-.1902.2599-.2991.8816-1.0142 1.9582-1.7954 3.2301-2.3437 1.2716-.5482 2.5711-.8178 3.8988-.8084l-.4374-1.1435c-1.0108.1386-2.0041.2934-2.9786.4635-.9746.1703-1.9653.3586-2.9716.5652-1.9448.4082-3.848.8048-5.7093 1.1903-1.8615.3852-3.6496.7231-5.3645 1.0131-1.7569 4.0694-2.4219 7.5778-1.9945 10.525.4272 2.9472 1.3417 5.4434 2.7437 7.4888.2679.4238.5593.8201.8742 1.1895.3149.369.6381.7296.9689 1.0805.5119.5086 1.0417 1.033 1.5899 1.573s1.1299 1.0777 1.7459 1.6132c.2537.2202.498.4328.7336.6375.2355.2049.496.3991.7809.5833 1.8743 1.5021 3.911 2.6527 6.1104 3.4515 2.1994.7991 4.354.7163 6.4644-.2477zm-10.199 2.3707-10.712-9.7477 7.766-2.5236zm20.782-35.613 11.824-3.9875-5.578-10.06-10.538 2.7961 5.3737 9.2177-2.5438 1.2565-14.558-7.7405c-.8646-.6228-1.4417-1.3782-1.7308-2.2657-.2892-.8879-.1857-1.7978.3101-2.7301.428-.8053 1.1619-1.5973 2.2013-2.3766 1.0395-.7795 2.4693-1.5003 4.2897-2.1634l-.6831-1.0156-16.433 6.6744c.1757.6917.3549 1.48.5366 2.3647.1819.885.3778 1.8454.5881 2.8814.2617 1.5528.436 3.1674.5228 4.8444.087 1.6773-.1131 3.229-.5996 4.6556-.0453.0848-.074.1645-.0867.2393-.0125.0748-.0414.1545-.0865.2395l1.0171.5409c.1128-.2121.2472-.4397.4037-.6826.1564-.2429.356-.4904.5983-.7418.4428-.5259 1.0168-.9409 1.7224-1.2453.7052-.3044 1.5032-.22 2.3933.2531l12.523 6.6592c1.1869.6307 1.8992 1.336 2.1374 2.1149.2381.779.1768 1.5075-.1834 2.1855-.0454.0848-.0845.159-.1185.2225-.0338.0635-.0944.1265-.1817.1888-.2452.3589-.5695.6622-.9732.9097-.4033.2474-.8421.4084-1.3164.4824l.7467 1.0494 13.255-4.5317c.068-1.8666-.2753-3.8021-1.0304-5.8074-.7552-2.0052-2.0226-3.4809-3.8024-4.4274z" fill="#383330" stroke="#1f1917"/><path d="m130.55 452.03c.5735 3.268 1.2248 5.6471 3.6042 7.1379 2.3794 1.4907 4.945 2.2359 7.6969 2.2359 2.4653 0 4.7874-.5159 6.9661-1.548 2.1785-1.032 3.7265-2.4939 4.644-4.386.4587-.8025.7739-1.7487.946-2.838.172-1.0891.3152-2.236.43-3.4399.172-2.0639.5159-3.956 1.0318-5.6761.5162-1.72 1.8062-2.5798 3.8701-2.5798.2866 0 .5735.0286.8601.0859.2865.0573.602.1145.9459.1721v-1.2901c-1.3187 0-2.6374-.129-3.9561-.3869-1.3186-.2583-2.5798-.5304-3.7839-.8172-.5732-.1718-1.118-.3297-1.6339-.4729-.5162-.1434-1.0035-.2724-1.4621-.3869.4014-.5162 1.0321-1.0893 1.8921-1.7201.86-.6307 1.7487-1.3759 2.666-2.2359 1.2611-1.0894 2.408-2.4367 3.4398-4.0422 1.0321-1.6053 1.548-3.5547 1.548-5.8479 0-.688-.0572-1.4046-.1718-2.1501-.1148-.7452-.2868-1.5194-.5161-2.3218-1.7201-5.1602-4.7013-9.4315-8.9439-12.814-4.2426-3.3828-8.7149-5.6474-13.416-6.794-1.1466-.1721-2.2646-.3297-3.354-.4731-1.0893-.1432-2.1787-.2149-3.268-.2149-2.4081 0-4.6727.3152-6.7941.9459-2.1212.6307-3.9847 1.6628-5.5899 3.096-3.6695 3.096-6.6362 5.4182-8.9011 6.9662-2.2646 1.548-4.085 2.3218-5.4609 2.3218-1.2039 0-2.1501-.5445-2.8381-1.6339-.688-1.0893-1.2611-2.7235-1.7198-4.9019h-1.3762c0 .2866.0145.5731.0431.86.0286.2866.0431.5732.0431.8598.4011 3.096 1.9063 5.9771 4.515 8.6431 2.6084 2.666 6.7224 4.1709 12.341 4.515.0573.5159.1576 1.2325.3011 2.1501.1431.9173.2724 1.9491.3869 3.096.1721 1.3759.3297 2.8953.4731 4.5578.1431 1.6628.2435 3.3829.301 5.1602.0573.5732.0859 1.1466.0859 1.7198v1.72c0 1.6628-.0572 3.2536-.172 4.773-.1146 1.5194-.3439 2.8239-.688 3.913-.7452 2.4655-1.677 4.3718-2.795 5.7191s-2.2504 2.2791-3.397 2.795c-.4014.1721-.8028.301-1.2039.3869-.4014.0862-.8028.129-1.2041.129-1.548 0-2.9098-.4728-4.0851-1.419-1.1752-.9459-1.8776-1.9922-2.1069-3.1388-.0573-.1148-.0859-.2293-.0859-.3442v-.3438c-.0576-.5734.0717-1.1324.3869-1.6773.3152-.5445.8456-1.0176 1.5911-1.4187 3.0384-1.6055 5.2602-3.4546 6.6648-5.5471 1.4049-2.0925 2.107-4.2285 2.107-6.4072 0-2.9812-1.2325-5.7761-3.6978-8.3848-2.4656-2.6088-5.9627-4.4003-10.492-5.3751v1.29h.4731c.1432 0 .2725.0287.387.0859 1.4907.1721 2.838.7025 4.0419 1.5911 1.2042.8887 1.8349 1.9063 1.8921 3.0529 0 .2296-.0286.459-.0859.6883-.0575.2293-.172.4586-.3441.688-.1721.3438-.4445.7021-.8169 1.0749-.3728.3727-.8459.7024-1.4191.989-2.2935 1.2614-3.9705 2.8666-5.0309 4.816-1.0607 1.9494-1.5911 3.9847-1.5911 6.1059 0 .2868.0142.5879.0431.9031.0286.3152.0428.6449.0428.989.3441 2.2359 1.1324 4.4002 2.365 6.493 1.2327 2.0926 2.8238 3.7695 4.7732 5.0309.6304.4587 1.2756.8601 1.9349 1.2042.6594.3438 1.3043.6593 1.935.9459 1.6052.7453 3.2108 1.2756 4.816 1.5911 1.6053.3152 3.1533.4728 4.644.4728 3.6119 0 6.7652-.8455 9.4601-2.537 2.6946-1.6911 5.1821-3.827 5.8128-6.4068zm-14.33-31.13c2.2935-.6307 4.4433-1.5338 6.4499-2.7091 2.0067-1.1752 3.8415-2.4222 5.504-3.7409 1.9494-1.6055 3.5833-3.096 4.902-4.4719 1.3187-1.3762 2.2362-2.2362 2.7522-2.5801.2865-.2293.5589-.4445.8169-.6452.2579-.2004.5304-.3869.8169-.5589.8028-.516 1.6053-.8887 2.4081-1.118.8027-.2294 1.5766-.3439 2.3221-.3439 2.408 0 4.4289.9029 6.063 2.7091 1.6339 1.806 2.5081 3.7695 2.6229 5.891v.2579c0 .5732-.0572 1.1322-.172 1.677-.1145.5445-.3152 1.0749-.6021 1.5911-.3438.6879-.8887 1.7628-1.6339 3.225-.7452 1.4618-1.8632 2.9956-3.3539 4.6009-1.4335 1.6052-3.2826 3.1246-5.5472 4.5581-2.2646 1.4332-5.0882 2.4939-8.471 3.1819-1.9491-2.9812-4.1851-5.2747-6.7079-6.88-2.5226-1.6053-5.1027-3.096-7.74-4.4719-.1145 0-.2007-.0145-.258-.0431-.0572-.0287-.1148-.0717-.172-.129zm14.878 12.9 19.608 5.4181c-4.644.8601-7.4962 2.3364-8.557 4.4289-1.0607 2.0928-1.5911 4.343-1.5911 6.751v2.3221c-.172 1.6625-.6879 2.9384-1.548 3.8271-.86.8886-1.7773 1.3901-2.7518 1.5049h-.258c-.9748 0-1.8777-.43-2.7091-1.2901-.8314-.86-1.3331-2.2073-1.5049-4.0419-.0575-.3441-.1003-.7166-.1292-1.118-.0287-.4013-.0428-.8027-.0428-1.2041 0-.2293-.0145-.4587-.0431-.688-.0287-.2293-.0431-.4586-.0431-.688 0-.5731.0144-1.1897.0431-1.849.0286-.6593.0431-1.3328.0431-2.0208 0-.3441.0141-.7024.0428-1.0752.0289-.3725.0431-.731.0431-1.0749v-2.0639c.0572-1.2614.043-2.5084-.0431-3.7412-.0859-1.2325-.2722-2.3649-.559-3.397zm35.26 1.978-.6879 1.376c.6879.3441 1.4045.731 2.15 1.161.7453.43 1.4908.9031 2.236 1.419 1.376.9749 2.7377 2.0353 4.085 3.1822 1.3473 1.1466 2.5943 2.3791 3.7409 3.6978 1.3187-1.6625 2.8525-3.2822 4.6012-4.8588 1.7487-1.5767 3.8268-2.8812 6.2348-3.913v-1.3762c-.1718.0575-.3438.0862-.5159.0862h-.43c-1.1466.0572-2.0211-.258-2.6229-.9462-.6021-.688-.989-1.4619-1.1611-2.3219-.0572-.1148-.0859-.2438-.0859-.3869v-20.081c0-1.3187.258-2.3936.7739-3.225.5159-.8311 1.1466-1.247 1.8921-1.247.4587 0 .9173.1435 1.3759.43.4587.2866.9173.7166 1.376 1.2901l1.3759-.688c-1.8346-1.4335-3.3539-2.6946-4.5578-3.7839-1.2042-1.0894-2.3508-2.0642-3.4401-2.9243-.688-.5731-1.3618-1.1179-2.0211-1.6339-.6591-.5159-1.4188-.9745-2.2788-1.3759-.0576-.0572-.129-.1148-.2152-.1721-.0858-.0572-.1862-.1145-.301-.172-2.6946 1.6055-4.3858 3.2967-5.074 5.074-.688 1.7773-1.0318 3.6694-1.0318 5.6761v23.736c0 1.1466-.1865 1.9352-.559 2.3649-.3728.4301-.817.6452-1.3331.6452-.2294 0-.4729-.0286-.7311-.0862-.258-.0572-.5304-.1145-.8169-.1717-.1146-.0576-.2435-.1148-.387-.1721-.1434-.0573-.301-.1148-.4731-.1721-.1718-.0572-.3583-.1289-.559-.2148-.2007-.0862-.3869-.1579-.559-.2152zm11.554 12.12c-1.9494 1.4907-4.7596 3.0731-5.6196 4.5639-.86 1.4904-1.2901 2.8667-1.2901 4.1278 0 1.6628.6166 3.0101 1.8491 4.0422 1.2328 1.0318 2.9097 1.548 5.0309 1.548 1.8349 0 3.225-.559 4.1712-1.677.9459-1.1183 1.4476-2.4225 1.5049-3.9132 0-.3439-.0286-.688-.0859-1.0318-.0575-.3442-.1148-.6594-.1721-.9462-.4013-1.3187-1.161-2.5798-2.279-3.784-1.118-1.2039-1.6756-1.9665-3.1094-2.9297zm37.81-1.9723 9.46-14.878-18.92-12.212c1.0318-3.1536 2.4077-5.4468 4.1278-6.8803 1.7201-1.4332 3.526-2.2359 5.4181-2.4077.1718-.0576.3297-.0862.4729-.0862h.4731c1.6052 0 3.1532.3583 4.644 1.0752 1.4907.7166 2.7518 1.677 3.7839 2.8808l.688-1.29c-.9173-.8025-1.8346-1.5766-2.7519-2.3219-.9173-.7455-1.8635-1.4907-2.838-2.2359-1.8921-1.4335-3.7409-2.8381-5.5471-4.214-1.806-1.3762-3.5116-2.7235-5.1169-4.0422-5.0453 1.6055-8.729 3.7553-11.051 6.4499-2.3219 2.6949-3.8557 5.4754-4.6009 8.3421-.1721.5735-.3011 1.1466-.3869 1.7201-.0862.5734-.1579 1.1466-.2152 1.72-.0573.8601-.1145 1.7487-.1721 2.666-.0572.9173-.0858 1.8632-.0858 2.8381v1.1608c0 .3727.0286.7596.0858 1.161.1148 2.8667.6738 5.6044 1.677 8.2131 1.0035 2.6088 2.7663 4.4864 5.2892 5.633zm-10.148-7.181.45835-17.875 8.3138 4.2873zm41.28-3.655 10.836 10.234 7.4821-11.524-8.858-9.546-6.7082 10.836-2.7519-1.978v-19.694c.1721-1.2614.6449-2.2932 1.4191-3.096.7738-.8027 1.7915-1.2038 3.0529-1.2038 1.0893 0 2.3363.3296 3.7409.989 1.4048.6593 2.967 1.7628 4.687 3.3108l.688-1.29-16.254-13.588c-.6308.5732-1.3618 1.2039-2.1932 1.8919-.8311.6879-1.7343 1.4334-2.7088 2.2359-1.4907 1.1469-3.096 2.2363-4.8161 3.2681-1.72 1.0321-3.4687 1.6914-5.246 1.978-.1146 0-.2149.0145-.3011.0431-.0859.0286-.1862.0431-.301.0431v1.3759c.2868 0 .6021.0142.9462.0428.3438.0289.7166.1004 1.118.2152.8025.172 1.5621.5445 2.2787 1.118.7169.5734 1.0752 1.4621 1.0752 2.6659v16.942c0 1.6052-.3441 2.7518-1.0321 3.4398-.6879.688-1.4907 1.0321-2.408 1.0321h-.301c-.0859 0-.1863-.0286-.3008-.0859-.5162-.0575-1.0179-.2293-1.5052-.5162-.4873-.2866-.9028-.6593-1.247-1.118l-.6879 1.376 12.212 11.438c2.0067-.9745 3.8557-2.4222 5.5471-4.3429 1.6912-1.9208 2.537-4.085 2.537-6.4931zm41.968 10.234c.4586-.4587 1.0607-1.0605 1.806-1.806.7455-.7452 1.6628-1.5194 2.7521-2.3218 1.4332-1.0894 3.1819-2.107 5.2458-3.0532 2.0642-.946 4.4436-1.505 7.1382-1.677v-1.376c-1.3187 0-2.4367-.2434-3.3539-.731-.9176-.4873-1.3763-1.5908-1.3763-3.3109v-23.65c0-.9748.2152-1.7918.6452-2.4511s.9028-1.3042 1.419-1.9349c.0573-.0573.1004-.1148.129-.1721s.0717-.1145.129-.1721c.172-.2293.3583-.4586.559-.6879.2007-.2294.3869-.4587.559-.688.4586-.688.8169-1.4907 1.0749-2.408.2579-.9173.3872-1.9205.3872-3.0099 0-.6879-.0576-1.3904-.1721-2.1069-.1148-.7169-.2869-1.4191-.5162-2.107-.9173-2.9815-2.9812-5.7192-6.192-8.2131-3.2105-2.494-7.9693-3.7409-14.276-3.7409h-1.376c-4.5867 0-7.9407.7597-10.062 2.2787-2.1215 1.5194-3.354 3.1964-3.6981 5.0313 0 .1717-.0142.3438-.0428.5159-.0286.172-.0431.3441-.0431.5159 0 1.72.6021 3.2394 1.806 4.5581 1.2041 1.3187 2.7808 1.978 4.7302 1.978h.6018c1.8921-.2293 3.4687-.8887 4.7301-1.978 1.2612-1.0894 1.8919-2.3508 1.8919-3.784 0-.1721-.0142-.3583-.0431-.559-.0287-.2007-.0715-.3869-.129-.559-.2293-.86-.7597-1.7056-1.5908-2.537-.8314-.8314-2.0211-1.5338-3.5691-2.107v-.0861c-.0573-.4587.3441-.8025 1.2042-1.0319.8597-.2293 1.9204-.3441 3.1818-.3441.6308 0 1.3043.0286 2.0211.0862.7166.0572 1.4188.1431 2.107.2579 1.9491.3439 3.7696.9315 5.461 1.7629 1.6911.8314 2.6801 1.9639 2.967 3.397.1145.4587.2007.9173.258 1.376.0572.4586.0859.8886.0859 1.29 0 1.3187-.2294 2.4367-.688 3.354-.4587.9173-1.0032 1.8059-1.6339 2.666-.1721.2868-.3583.559-.559.8172-.2007.258-.4158.5301-.6452.8169-.86 1.2039-1.6625 2.5943-2.408 4.1709-.7452 1.5767-1.118 3.7123-1.118 6.4072-1.1466-.8028-2.2073-1.5625-3.1819-2.2791-.9745-.7166-1.9207-1.4476-2.838-2.1931-.4587-.2866-.8887-.5877-1.2901-.9029-.4014-.3155-.8025-.6451-1.2038-.989-.5735-.4586-1.1753-.9317-1.806-1.419s-1.2614-1.0176-1.8921-1.5911c-.0573 0-.1004.0145-.129.0431l-.0431.0431c-2.0066.9745-3.7553 2.1642-5.2458 3.5688-1.4907 1.4049-2.408 3.7698-2.7521 7.0951v19.694c0 2.2932.5303 3.956 1.5911 4.9879 1.0607 1.032 2.4797 1.9207 4.257 2.6659 1.9491.8601 4.2282 1.8491 6.8369 2.9671 2.6087 1.1179 5.3751 2.9956 8.299 5.633zm-.6021-12.9c-.86.3441-1.6339.6879-2.3218 1.0321-.688.3438-1.3187.6879-1.8922 1.0318-.5731.2868-1.0893.5734-1.548.86-.4586.2869-.9173.5734-1.3759.86-.0573.0573-.1145.1004-.1721.129-.0572.0286-.1145.0717-.1717.129v-25.714c0-1.0894.1717-2.0211.5159-2.795.3438-.7741.8886-1.1611 1.6339-1.1611.6307 0 1.3759.2438 2.2359.7311.8601.4873 1.8921 1.3328 3.096 2.537zm43.946 12.9c.4014-.5732 1.0035-1.2184 1.806-1.935.8027-.7166 1.7486-1.4476 2.838-2.1928 1.2614-.9173 2.6804-1.7918 4.2571-2.6232 1.5766-.8311 3.1677-1.5336 4.7729-2.107.4587-.1145.9032-.2293 1.3332-.3439.43-.1148.8456-.2293 1.2469-.3441v-1.29c-.2293.0575-.43.0861-.602.0861h-.5159c-1.2615.0573-2.1788-.2868-2.7522-1.0321-.5732-.7452-.86-1.5766-.86-2.4939v-18.92c0-1.548.2151-2.6802.6451-3.397.43-.7166 1.1036-1.0749 2.0209-1.0749.4586 0 .9748.0859 1.548.2579.5734.1721 1.2041.43 1.8921.7742v-1.2901c-1.6628-1.0321-3.4112-2.3363-5.2461-3.9129-1.8346-1.5767-3.9274-3.1964-6.2779-4.8592-.1148.1148-.2151.2152-.301.3011-.0859.0858-.1863.1576-.3011.2148-.2866.3441-.602.6452-.9459.9031-.3441.258-.688.5304-1.0321.817-1.0321.9173-1.9922 1.8921-2.8808 2.9242-.8887 1.0318-1.3618 2.1784-1.4191 3.4398v.1721c0 .0573.0287.1432.0859.258v.3441c-1.2038-.6883-2.3794-1.4477-3.526-2.2791s-2.2646-1.7056-3.3539-2.6231c-1.0321-.8025-2.0353-1.5767-3.0101-2.3219-.9746-.7452-1.9492-1.4621-2.924-2.1501-1.548 1.0321-2.7949 1.9349-3.7409 2.7091-.9462.7738-1.7059 1.5335-2.279 2.279-.6307.8601-1.0321 1.7774-1.2042 2.7519-.1718.9749-.2579 2.2074-.2579 3.6981v20.296c0 .3438.0144.7166.0431 1.1179.0286.4014.1289.8314.301 1.2901.2293.6304.6735 1.2756 1.3328 1.9349.6594.6594 1.677 1.247 3.0532 1.7629 1.0319.4586 2.1929.9462 3.483 1.4621 1.29.5159 2.5942 1.0893 3.9129 1.7201 1.6628.7452 3.2681 1.5908 4.8161 2.537 1.548.9459 2.8953 1.9922 4.0419 3.1388zm-8.7718-34.572c0-1.2615.1862-2.2218.559-2.8812.3725-.659.9028-.9887 1.5908-.9887.2868 0 .5876.0428.9031.129.3152.0859.6449.2148.989.3869l3.4399 1.978v23.048c-1.6053.6307-2.9526 1.3904-4.042 2.279-1.0893.8887-2.1214 1.8204-3.096 2.795-.0572.0572-.1145.1148-.172.172-.0573.0573-.1146.1146-.1718.1721zm46.698 24.338 10.836 10.234 7.4821-11.524-8.858-9.546-6.7082 10.836-2.7519-1.978v-19.694c.1721-1.2614.6449-2.2932 1.4191-3.096.7738-.8027 1.7915-1.2038 3.0529-1.2038 1.0893 0 2.3363.3296 3.7409.989 1.4048.6593 2.967 1.7628 4.687 3.3108l.688-1.29-16.254-13.588c-.6308.5732-1.3618 1.2039-2.1932 1.8919-.8311.6879-1.7342 1.4334-2.7088 2.2359-1.4907 1.1469-3.096 2.2363-4.8161 3.2681-1.72 1.0321-3.4687 1.6914-5.246 1.978-.1146 0-.2149.0145-.3011.0431-.0859.0286-.1862.0431-.301.0431v1.3759c.2868 0 .6021.0142.9462.0428.3438.0289.7166.1004 1.118.2152.8025.172 1.5621.5445 2.2787 1.118.7169.5734 1.0752 1.4621 1.0752 2.6659v16.942c0 1.6052-.3441 2.7518-1.0321 3.4398-.6879.688-1.4907 1.0321-2.408 1.0321h-.301c-.0859 0-.1863-.0286-.3008-.0859-.5162-.0575-1.0179-.2293-1.5052-.5162-.4873-.2866-.9028-.6593-1.247-1.118l-.6879 1.376 12.212 11.438c2.0067-.9745 3.8557-2.4222 5.5471-4.3429 1.6912-1.9208 2.537-4.085 2.537-6.4931zm25.112-1.29h-5.4182v1.29c2.5229.4587 4.9451 1.9636 7.2672 4.5151 2.3219 2.5514 4.2282 5.3178 5.7189 8.299.9173 1.7773 1.6628 3.4973 2.236 5.1599.5734 1.6628.9173 3.1249 1.0321 4.386h1.978v-17.544h8.858v-6.1061h-8.858v-20.382c.2293-1.1466.6162-2.0639 1.1611-2.7518.5445-.688 1.2755-1.0321 2.1928-1.0321.688 0 1.4908.2007 2.4081.6021.9173.4011 1.9494 1.0318 3.096 1.8918l.602-1.3759c-1.8921-1.4908-3.4687-2.7808-4.7301-3.8699-1.2614-1.0893-2.4367-2.1214-3.526-3.096-.0573-.0575-.1146-.1003-.1721-.1293-.0573-.0286-.0859-.0714-.0859-.1289-.86-.7453-1.7342-1.5194-2.6229-2.3219-.8887-.8028-1.9063-1.6628-3.0532-2.5801-.7452 1.2614-1.7198 2.4939-2.9239 3.6981-1.2039 1.2039-2.4653 2.2073-3.784 3.0101-.9745.6304-1.9494 1.1322-2.9239 1.5049-.9749.3728-1.8346.559-2.5801.559v1.2901c1.72 0 2.838.3438 3.3539 1.0318.5162.6879.7742 1.72.7742 3.096zm47.988 12.126 9.46-14.878-18.92-12.212c1.0318-3.1536 2.4077-5.4468 4.1278-6.8803 1.7201-1.4332 3.526-2.2359 5.4181-2.4077.1718-.0576.3297-.0862.4729-.0862h.4731c1.6052 0 3.1532.3583 4.644 1.0752 1.4907.7166 2.7518 1.677 3.7839 2.8808l.688-1.29c-.9173-.8025-1.8346-1.5766-2.7519-2.3219-.9173-.7455-1.8635-1.4907-2.838-2.2359-1.8922-1.4335-3.7409-2.8381-5.5471-4.214-1.806-1.3762-3.5116-2.7235-5.1169-4.0422-5.0453 1.6055-8.729 3.7553-11.051 6.4499-2.3219 2.6949-3.8557 5.4754-4.6009 8.3421-.1721.5735-.3011 1.1466-.387 1.7201-.0861.5734-.1578 1.1466-.2151 1.72-.0573.8601-.1145 1.7487-.1721 2.666-.0572.9173-.0859 1.8632-.0859 2.8381v1.1608c0 .3727.0287.7596.0859 1.161.1148 2.8667.6738 5.6044 1.677 8.2131 1.0035 2.6088 2.7663 4.4864 5.2892 5.633zm-10.148-7.057v-17.98l8.7721 5.4179zm41.968-3.091 14.19 10.148c.4587-.4586.946-.9603 1.4622-1.5049.5159-.5448 1.0318-1.1038 1.548-1.6769 1.0893-1.0894 2.279-2.1215 3.5688-3.096 1.29-.9749 2.709-1.5767 4.257-1.806v-1.3762c-1.6625 0-2.9811-.3152-3.956-.9459-.9745-.6307-1.4618-2.1215-1.4618-4.472v-18.189c0-.2007.0286-.4156.0859-.6449.0572-.8601.2724-1.6342.6449-2.3222.3727-.6879 1.0179-1.0607 1.9352-1.118.4586 0 .9604.1004 1.5049.3011s1.1897.5303 1.9349.989l.688-.688-12.814-10.836c-3.0385 2.3505-4.9306 4.4433-5.6758 6.2779-.7456 1.8346-1.118 3.5833-1.118 5.2461v22.36c0 1.4907-.2007 2.5225-.6021 3.096-.4014.5734-.9173.86-1.548.86-.4014 0-.8169-.0859-1.247-.258-.43-.172-.8745-.4013-1.3331-.6879-.3438-.2293-.688-.4876-1.0318-.7742-.3441-.2866-.6883-.5731-1.0321-.86v-22.403c0-.2579.0286-.53.0859-.8169.0575-.5159.2293-1.0176.5162-1.5049.2866-.4873.7738-.8456 1.4618-1.0749v-1.2901c-1.3759-.3441-2.8808-1.0321-4.515-2.0641-1.6339-1.0319-3.3109-3.0385-5.031-6.02-.4013 1.1466-1.1324 2.236-2.1928 3.2681-1.0608 1.0321-2.1932 1.9494-3.3971 2.7519-.86.5161-1.6914.9603-2.4939 1.3331-.8028.3727-1.4907.6162-2.0642.731v1.2901c1.376 0 2.5084.2866 3.3971.8597.8886.5735 1.3331 1.8922 1.3331 3.9561v18.232c0 .2293-.0145.4728-.0431.7311-.0286.2579-.0431.5303-.0431.8169-.172.8025-.4442 1.5336-.8169 2.1929-.3728.6593-.9031.989-1.5911.989-.4587.0573-.9746-.0717-1.548-.3869-.5732-.3152-1.2325-.8456-1.978-1.5911l-.688 1.29 11.524 10.836c2.6949-1.3186 4.7157-2.7518 6.063-4.2998s2.0211-3.4974 2.0211-5.8482z" fill="#2b8057" stroke="#383330"/><path d="m225.02 376.18c-.2568-.5264-.4847-1.2291-.6837-2.1078-.199-.8788-.3504-1.868-.4539-2.9682-.1598-1.2957-.2242-2.6898-.193-4.1816.0315-1.4922.1627-2.9421.3946-4.3504.42247-1.3498.82641-2.788-.792-1.8385-.47.9467-1.0945 1.4791-1.8726 1.5964-.7784.1171-1.5038-.0104-2.1753-.3826l-13.854-7.6794c-1.1336-.6284-1.8754-1.2452-2.2258-1.851-.3501-.6058-.339-1.2447.0332-1.9162.1862-.3359.4586-.6789.8172-1.029.3586-.3498.8036-.707 1.3348-1.0712l-.9445-.5236c-1.4306.7988-3.0954 1.5497-4.9946 2.2533-1.8992.7033-3.9345 1.5783-6.1061 2.6246.0374.1307.0703.2449.0983.3427.0281.0978.0397.2004.0352.3076.1355.3498.2279.7027.2772 1.0593s.1089.7188.1794 1.0873c.2526 1.1279.5766 2.2267.9718 3.2965.3948 1.0695 1.0425 1.8813 1.9428 2.4352.042.0232.0839.0465.1259.0697.0419.0233.1165.0372.2239.0417.042.0232.0839.0468.1259.07.0419.0233.0842.0465.1261.0697-.9927.6024-2.0259 1.1546-3.1 1.6569-1.0743.5023-2.1685.966-3.2822 1.3912-1.0066.4298-1.9806.8504-2.9219 1.2617-.9411.4113-1.8616.8337-2.761 1.2683.1273 1.5525.2823 2.8321.4652 3.8389.1828 1.0069.4306 1.8715.7438 2.5937.3736.811.8824 1.4772 1.5264 1.9987.6438.5216 1.5115 1.0848 2.6031 1.69l13.917 7.7143c.0839.0464.1783.0989.2832.157.1048.0581.2205.1222.3463.1919.042.0232.0944.0524.1577.0873.0629.0349.1153.0641.1573.0873.252.1395.5306.2806.8362.4224.3053.1417.6608.2429 1.0667.303.5547.0882 1.2075.0247 1.9579-.1905.7503-.2151 1.5936-.722 2.5302-1.5199.7546-.5695 1.5826-1.222 2.484-1.9571.9017-.7353 1.8507-1.4575 2.8479-2.1671 1.2204-.9153 2.4914-1.7472 3.8124-2.4967 1.3209-.7498 2.6339-1.3116 3.939-1.6858zm-28.875-7.609c-.9236-.512-1.5514-1.0383-1.8828-1.5786-.3314-.5406-.3574-1.0627-.0782-1.5665.1162-.21.2698-.413.4609-.6088.1908-.1959.4192-.3853.6848-.5672l2.8446-1.7161 16.877 9.3549c-.1896 1.4315-.1805 2.7263.0281 3.8848.2089 1.1583.472 2.2918.79 3.4013.0187.0652.0377.1307.0561.1959.0187.0652.0377.1307.0562.1956zm38.267-16.99 12.799 1.2025c1.1052-1.3371 1.84-2.939 2.2045-4.8056.3643-1.8669.201-3.439-.4901-4.7168-.0178-.1058-.0547-.1976-.1111-.2753-.0564-.0776-.1128-.1553-.1692-.233s-.1129-.1553-.1693-.233-.1323-.1412-.2276-.1908c-.0845-.1165-.1647-.2063-.2406-.2701-.076-.0635-.1616-.0359-.2569-.1695l14.605-.1094c.0108-.0669.0187-.1171.0241-.1508.005-.0338.0133-.0839.0238-.1508.0743-.4692.1539-.972.2389-1.5086.0851-.5366.1698-1.0727.2549-1.6093.2194-1.1678.5207-2.3658.9042-3.5937.3836-1.228 1.0222-2.4928 1.9154-3.7945l-.6769-.932c-.1273.1514-.2517.2863-.3736.4048-.1216.1182-.2605.2335-.4156.3464-.6602.4796-1.383.6488-2.1679.5071-.7852-.1415-1.5304-.6976-2.2357-1.6685l-9.3529-12.873c-.0281-.0388-.0493-.068-.0635-.0873-.0142-.0195-.0354-.0487-.0635-.0876-.536-.7375-.9301-1.5046-1.1821-2.3006-.252-.7956-.0479-1.4334.6123-1.9134.3107-.2256.7192-.4186 1.2257-.5788.5066-.1604 1.1586-.2633 1.9562-.3087l-.6772-.932-13.265-.864c-1.0709 2.8545-1.4496 5.0281-1.1361 6.5211s.7098 2.5693 1.1897 3.2295l12.357 17.009c.6772.932 1.0333 1.6668 1.0684 2.2051.0352.5383-.161.9626-.5882 1.273-.2718.1973-.6122.341-1.0219.4309-.4096.0898-.854.1309-1.3339.1236-.2118.0351-.421.0536-.6273.0553-.2067.002-.396.006-.5692.013-.307-.0142-.5902-.0162-.8496-.006-.2594.0105-.5091.0139-.7489.0102l-10.369-14.271c-.0283-.0388-.0493-.0677-.0635-.0873-.0141-.0196-.0354-.0488-.0635-.0873-.6207-.8544-1.0632-1.7493-1.3274-2.6847-.2642-.9352-.0664-1.6427.5938-2.1223l-.6346-.8736c-.3496.2537-.8113.4558-1.3848.6052-.5734.1496-1.1865.2245-1.8394.2242-1.027-.025-2.1053-.1616-3.2343-.4091-1.129-.2477-2.1699-.6185-3.1226-1.1131.07 1.0763.0688 2.1158-.004 3.1178-.0731 1.002-.2259 1.9142-.4592 2.7366-.2829.9173-.6214 1.6971-1.0148 2.3391-.3938.6421-.8238 1.1325-1.2898 1.4712l.6347.8736c1.0874-.79 2.0061-.8937 2.7555-.3109.7495.5825 1.4349 1.3011 2.0554 2.1554.0284.0389.0494.0678.0635.0873.0142.0196.0355.0488.0635.0874l9.6914 13.339c.8184 1.1262 1.2589 1.9778 1.3224 2.5546.0632.5771-.1188 1.0208-.546 1.3312-.3107.2256-.75.3965-1.3184.5128-.5683.1162-1.1506.2128-1.747.2902-.0669-.0105-.1366-.004-.2092.0184-.0722.023-.1278.0485-.1666.0769-.2399-.004-.4754.0192-.7067.0683-.2313.0493-.472.1057-.7229.1692l-10.961-15.086c-.6769-.9321-1.063-1.7493-1.1579-2.4514-.095-.7025.1224-1.4242.652-2.1649l-.6347-.8739c-1.1651.8464-2.6481 1.1529-4.4496.919-1.8017-.2339-3.5314-.7568-5.1896-1.5693-.0743.4692-.1347.9582-.1809 1.4661-.0459.5083-.0921 1.0165-.1383 1.5245-.1452 1.3516-.4246 2.6819-.8382 3.9912-.4136 1.309-1.2612 2.429-2.5424 3.3602l.6347.8736c.8155-.5924 1.6149-.921 2.3984-.9862.7835-.0649 1.646.5097 2.5877 1.7243.1412.1942.2798.4051.4153.6327.1358.2277.2687.4723.3994.7334l9.0142 12.407c.7619 1.0485 1.1732 1.921 1.2347 2.6181.0615.6973-.1213 1.2007-.5485 1.5111-.3107.226-.7279.3657-1.252.4204-.5242.0544-1.1217.0284-1.7918-.0777l.2109 1.2705 12.333 1.5409c.1871-.3138.3824-.6783.5857-1.0927.2029-.4144.3753-.8513.5167-1.3099.3427-1.0797.5789-2.245.7081-3.496.1296-1.2509.0145-2.3689-.345-3.3536-.0634-.2509-.142-.4607-.2352-.6302-.18527-.39095-.53495-.66623-.7487-.9686zm54.868-26.105c-.038.2897-.0516.5902-.0405.902.0107.3121.0221.6358.034.9715.0184.5278.0496 1.0788.0935 1.6537.0442.5749.1233 1.1242.2378 1.6486.4893 3.009 1.6773 5.741 3.5643 8.1967 1.8868 2.4556 4.8209 3.6139 8.8025 3.475.5278-.0185 1.0544-.061 1.5806-.1273.5261-.0663 1.0751-.1576 1.6474-.2736 3.098-.6845 5.73-2.3374 7.8957-4.9586 2.1659-2.6212 3.3131-6.2152 3.4418-10.783l-11.355-1.2606c.1899-.0544.392-.1216.6052-.2012.2134-.0794.4152-.1466.6054-.2013 1.6589-.6341 3.1746-1.5877 4.5468-2.8604 1.3725-1.2725 2.0052-3.4441 1.8978-6.514-.003-.0961-.007-.192-.01-.288-.003-.0959-.008-.2158-.0125-.3598-.0479.002-.0728-.0215-.0745-.0694-.002-.0479-.003-.0961-.005-.144-.002-.0476-.004-.1077-.006-.1797s-.005-.1559-.009-.252c-.087-2.4942.1792-4.4969.7988-6.0075.6197-1.5103 1.6005-2.3133 2.9418-2.408.6237-.0219 1.3011.1227 2.0325.4334.731.3104 1.5653.8098 2.5015 1.4975l1.1314-.6159-13.401-10.339c-3.9331 1.5302-6.2926 3.4138-7.079 5.6506-.7863 2.2366-1.116 5.1781-.9887 8.8237.0201.5757.0337 1.3076.0408 2.196.007.8884-.0935 1.7924-.3016 2.7122-.2341 1.5452-.8447 2.9713-1.8317 4.2786-.9873 1.3071-2.6079 2.0001-4.8626 2.0789-.3356.0117-.6959.0122-1.0806.002-.3846-.0107-.7704-.0572-1.1576-.1397 1.2501-1.3405 2.245-3.1042 2.9851-5.2914.7404-2.1872 1.0934-4.4569 1.0591-6.8091-.002-.0479-.004-.108-.006-.18-.002-.0718-.005-.1557-.009-.2518-.1122-3.2139-1.1486-6.0718-3.109-8.5728s-5.2192-3.672-9.7767-3.5129c-3.2621.1139-5.7084.8838-7.3397 2.3096-1.6314 1.4258-2.7054 2.9883-3.2225 4.6874-.1732.5343-.2877 1.0429-.343 1.5247-.0552.4822-.0742.9635-.0575 1.4432.0618 1.7747.6956 3.0736 1.9009 3.8959 1.2056.8223 2.5279 1.2084 3.9671 1.1582 1.3927-.0005 2.662-.4413 3.8081-1.3218 1.146-.8804 1.6905-2.1361 1.6336-3.7672-.0136-.3838-.0757-.7897-.1868-1.2183-.1112-.4283-.2716-.9029-.4819-1.4239-.1077-.3325-.2038-.6775-.2883-1.0346-.0845-.3572-.1318-.6798-.1417-.9678-.0437-1.2472.2709-2.2067.9439-2.8786.6729-.6718 1.417-1.0221 2.2328-1.0505.5262-.0663 1.033.0119 1.5211.235.4879.2231.9077.5446 1.2583.9647.4519.5606.7841 1.1253.9958 1.6942.2121.5689.3271 1.1172.3456 1.645.0385 1.1035-.2472 2.2059-.8569 3.308-.6101 1.1018-1.4004 2.1983-2.3707 3.2888-.5555.5955-1.1228 1.2038-1.7016 1.8243-.5785.6208-1.1699 1.2297-1.7731 1.827-1.0219.9963-1.9953 2.0029-2.9205 3.0197-.9252 1.0171-1.7056 2.041-2.3423 3.0716-1.3654 2.1612-2.349 4.2489-2.9511 6.2629-.6021 2.0143-.8722 3.909-.8102 5.6837.1843 5.277 2.8154 9.4476 7.8934 12.512 5.0783 3.0648 11.223 4.6873 18.433 4.8676.144-.005.288-.01.4317-.015.144-.005.3121-.0108.5038-.0176 6.6696-.1848 11.764-2.1639 15.282-5.9369 3.5184-3.7729 5.6803-7.8828 6.4857-12.33.117-.7725.2097-1.5562.278-2.3511.0686-.7951.0891-1.5763.0624-2.3437l-1.1514.0403c-.0187 6.3405-2.016 11.381-5.9919 15.122-3.9759 3.7408-8.4101 5.697-13.303 5.8677-.3356.0119-.6721.0116-1.0085-.0006-.3365-.0125-.673-.0127-1.0086-.0008-.6752-.0726-1.3507-.169-2.0273-.2895-.677-.1204-1.355-.2888-2.035-.5054-3.064-1.0936-5.2818-2.709-6.6532-4.8466-1.3714-2.1377-2.1223-4.3807-2.2522-6.7295-.003-.0961-.006-.18-.009-.252s-.005-.1321-.007-.1797c-.005-.144-.01-.2761-.0136-.396-.004-.1196-.009-.2517-.0139-.3957.0474-1.3947.2512-2.7825.6112-4.1638.3597-1.3814.8084-2.6337 1.3456-3.7574zm14.175-.4949c.104 2.9744-.3526 5.3677-1.37 7.1802-1.0176 1.8124-2.5336 2.7541-4.5484 2.8244-.2382.0564-.5015.0777-.7901.0638-.2888-.0142-.5785-.0638-.8699-.15-2.0265-.2653-3.3747-1.0465-4.0442-2.3442-.6696-1.2974-1.0313-2.7136-1.0848-4.2486-.017-.4796-.01-.9723.0204-1.4777.0303-.5054.0621-.9748.0949-1.4082-.017-.4797-.008-.9122.0267-1.2977.0343-.3856.0468-.722.0368-1.0097zm32.592 19.993 12.009-8.5822-10.857-15.413c1.7901-2.124 3.5776-3.4727 5.3623-4.0459 1.7844-.5732 3.4381-.6298 4.9609-.1698.1514.009.2829.0366.394.0814.1111.045.2336.0944.3671.1485 1.2461.5034 2.3355 1.2668 3.2678 2.291.9326 1.0238 1.6103 2.1648 2.0338 3.4231l.9386-.7858c-.4601-.9107-.9298-1.7994-1.408-2.6654-.4782-.8663-.9788-1.7416-1.5018-2.6257-1.019-1.7059-2.0137-3.3764-2.984-5.0108-.9706-1.6345-1.872-3.2154-2.7045-4.7424-4.4198-.3365-7.9535.1772-10.601 1.5409-2.6478 1.3635-4.7103 3.0407-6.188 5.0324-.3132.3911-.5933.7959-.8396 1.2138-.2466.4181-.4822.8407-.7064 1.2676-.3141.6497-.6375 1.3215-.9697 2.0157-.332.694-.6512 1.4193-.9567 2.1759-.1259.3115-.2472.612-.3643.9011-.1168.2895-.216.599-.2973.9284-.8099 2.2612-1.2345 4.5615-1.2739 6.9012s.7401 4.3501 2.3388 6.0313zm-5.4275-9.1089 5.5718-13.068 4.9372 6.5247zm27.636 14.655 3.4464 14.254c.3387-.0238.7189-.0587 1.1409-.1055.4221-.0465.8521-.102 1.2898-.1666 1.3448-.2302 2.7544-.6265 4.2293-1.1889s2.7791-1.4958 3.9127-2.7998c.1258-.1448.244-.2809.3543-.4076.1102-.127.2256-.2965.3472-.5091l14.124-16.247c.7558-.8697 1.6861-2.5254 2.7913-4.9672 1.1053-2.4418 1.4431-5.7574 1.0143-9.9465-.2509-2.126-.781-4.479-1.5911-7.0591-.8099-2.5804-2.0191-5.3963-3.6272-8.4481l-1.0962.383c1.5579 2.817 2.3791 5.3115 2.4627 7.4832.0837 2.1716-.208 4.0801-.8756 5.7259-.5193 1.3292-1.1769 2.5067-1.9729 3.532s-1.5245 1.9185-2.1858 2.679c-.0632.0726-.1341.1542-.2126.2447-.0788.0904-.1497.172-.2126.2446l-16.013 18.421c-.0629.0726-.1258.1449-.1888.2174-.0632.0723-.1258.1449-.189.2172-.6974.7293-1.4565 1.3096-2.2768 1.7413-.8204.4317-1.5387.3798-2.1544-.1553-.3622-.315-.6698-.8209-.9229-1.5177-.2529-.6968-.4218-1.6549-.5071-2.8738l12.281-14.128c.7246-.8331 1.4253-1.2733 2.1022-1.3207.6772-.0473 1.3057.1809 1.8853.6849.1812.1573.3464.3328.4961.5266.15.1936.2993.3873.449.5809l.7087-.815c-.5278-1.222-.9499-2.5109-1.2657-3.8667-.3158-1.3561-.5686-2.6567-.7577-3.9025-.074-.5732-.1482-1.1463-.2225-1.7195-.074-.5734-.1276-1.097-.1607-1.571-1.7513.2586-3.6114.2951-5.5809.1095-1.9695-.1854-3.8713-.5032-5.7061-.9533l-.7084.8149c.0723.0632.1446.1262.2171.1891.0726.0629.163.1417.2719.2361.0725.0632.1448.1259.2174.1891.0723.0629.1448.1259.2171.1888.4663.3418.7521.7812.8578 1.3181s-.2668 1.2946-1.1169 2.2725l-17.478 20.106c-.4408.5071-.9922 1.0134-1.6543 1.5191-.6625.5057-1.3672 1.0057-2.1153 1.5004-1.1763.6947-2.3938 1.2903-3.6518 1.7864-1.258.4963-2.3117.7571-3.1607.7823-.036-.0312-.0708-.0459-.1048-.0436-.0341.002-.0848.006-.1525.0107l-.3212 1.2473c.2032-.0142.3804-.0352.5315-.0627.1514-.0274.3127-.0303.4844-.008 1.3133-.1941 2.484-.4799 3.5124-.858 1.0284-.3782 1.8851-.7784 2.5699-1.2005-1.1885 2.4647-1.4448 4.8815-.7687 7.2499.6758 2.3681 1.7438 4.5054 3.204 6.4105.5624.743 1.146 1.4253 1.7509 2.0467.6047.621 1.215 1.1993 1.8309 1.7348.3986.3464.7776.6599 1.1376.9411.36.2809.7004.5292 1.0219.7452l.7083-.8152c-.2534-.2203-.4991-.4499-.737-.6886-.2378-.2384-.4858-.5017-.7443-.79-.997-1.1208-1.7054-2.3729-2.1255-3.7556-.4198-1.3825-.1102-2.6717.929-3.867l9.6032-11.055zm22.215 25.892-3.0957 12.088 11.475.8014 3.3947-10.361-10.657-.5136.3314-2.8179 14.421-7.9937c.9935-.3858 1.9412-.4584 2.8431-.2174.902.2409 1.6087.8231 2.1206 1.7467.4422.7976.707 1.8445.7943 3.1408.0876 1.2962-.0864 2.8882-.5219 4.7758l1.2238-.0196 3.3522-17.417c-.6755-.229-1.4343-.5085-2.2754-.8379-.841-.3294-1.7532-.688-2.7368-1.076-1.4448-.6262-2.8939-1.3595-4.3478-2.2-1.4536-.8405-2.6461-1.8536-3.5776-3.0385-.0465-.0842-.0975-.1516-.1536-.2029-.0559-.0513-.1072-.1191-.1537-.203l-1.0074.5584c.1162.2101.2339.4468.3523.7104.1185.2633.2175.5655.2963.9057.2001.6576.2352 1.3651.1066 2.1226-.129.7577-.6344 1.3807-1.516 1.8694l-12.406 6.8763c-1.1755.6517-2.1546.8651-2.9378.6406-.7829-.2245-1.3606-.6726-1.7331-1.3442-.0465-.0842-.087-.1576-.1222-.2205-.0348-.0629-.0544-.148-.0589-.2551-.1678-.4011-.2455-.8385-.2333-1.3116.0125-.4731.1162-.9289.3126-1.3669l-1.2869.0547-3.4186 13.585c1.5285 1.0737 3.3387 1.8399 5.4315 2.2989 2.0931.4586 4.0209.1995 5.7844-.7779z" fill="#383330" stroke="#1f1917"/></g></svg>