<?xml version="1.0" encoding="UTF-8" standalone="no"?>
<!-- Created with Inkscape (http://www.inkscape.org/) -->

<svg
   xmlns:dc="http://purl.org/dc/elements/1.1/"
   xmlns:cc="http://creativecommons.org/ns#"
   xmlns:rdf="http://www.w3.org/1999/02/22-rdf-syntax-ns#"
   xmlns:svg="http://www.w3.org/2000/svg"
   xmlns="http://www.w3.org/2000/svg"
   xmlns:sodipodi="http://sodipodi.sourceforge.net/DTD/sodipodi-0.dtd"
   xmlns:inkscape="http://www.inkscape.org/namespaces/inkscape"
   version="1.1"
   id="svg2"
   width="177.12"
   height="38.880001"
   viewBox="0 0 177.12 38.880001"
   sodipodi:docname="Quintar.svg"
   inkscape:version="0.92.2 (5c3e80d, 2017-08-06)">
  <metadata
     id="metadata8">
    <rdf:RDF>
      <cc:Work
         rdf:about="">
        <dc:format>image/svg+xml</dc:format>
        <dc:type
           rdf:resource="http://purl.org/dc/dcmitype/StillImage" />
        <dc:title></dc:title>
      </cc:Work>
    </rdf:RDF>
  </metadata>
  <defs
     id="defs6" />
  <sodipodi:namedview
     pagecolor="#ffffff"
     bordercolor="#666666"
     borderopacity="1"
     objecttolerance="10"
     gridtolerance="10"
     guidetolerance="10"
     inkscape:pageopacity="0"
     inkscape:pageshadow="2"
     inkscape:window-width="1920"
     inkscape:window-height="1019"
     id="namedview4"
     showgrid="false"
     inkscape:zoom="5.6684735"
     inkscape:cx="109.86496"
     inkscape:cy="11.480278"
     inkscape:window-x="0"
     inkscape:window-y="33"
     inkscape:window-maximized="1"
     inkscape:current-layer="svg2" />
  <g
     id="g866"
     transform="translate(-8.4161344,28.282721)">
    <path
       style="fill:#95dd2e;stroke-width:1"
       d="m 25.502579,5.2070509 c -3.131317,-0.255275 -5.591267,-1.287704 -8.279422,-3.474835 -2.426587,-1.97431597 -4.1023,-4.658372 -5.018611,-8.038509 -0.428827,-1.581879 -0.383839,-5.5550689 0.08243,-7.2800009 1.449367,-5.361829 6.019393,-9.739244 11.376997,-10.897495 1.231556,-0.266248 5.081954,-0.302864 6.200061,-0.05896 2.876282,0.62743 5.14688,1.823825 7.320706,3.857332 2.855349,2.671039 4.477552,6.136976 4.676507,9.99165 0.190429,3.6894739 -0.715914,6.7786139 -2.851067,9.71746093 l -0.791907,1.089987 0.604808,0.686389 c 0.332643,0.37751397 1.278726,1.41701897 2.102404,2.31001297 l 1.4976,1.623624 H 40.578541 38.733995 L 37.471904,3.3722759 36.209813,2.0108459 34.872,2.8910009 c -2.735109,1.799443 -5.952042,2.594645 -9.369421,2.31605 z m 4.165309,-2.819325 c 4.863334,-1.090397 8.832077,-5.455467 9.524197,-10.475304 0.558955,-4.0540069 -0.807157,-7.8651189 -3.870643,-10.7981319 -2.256936,-2.160815 -4.537047,-3.162745 -7.653554,-3.36314 -4.125219,-0.265257 -7.848943,1.36045 -10.467017,4.5697 -1.839679,2.25509 -2.638129,4.336948 -2.769914,7.22221 -0.165841,3.6308469 0.89902,6.5810549 3.310289,9.1711909 3.086526,3.315485 7.483284,4.669712 11.926642,3.673475 z m 24.867886,2.426184 c -3.29547,-0.656914 -6.103934,-3.430442 -6.705456,-6.622042 -0.09278,-0.49227 -0.16243,-3.596885 -0.16243,-7.24 v -6.3781619 h 1.28 1.28 l 9.6e-4,5.8799999 c 4.8e-4,3.234001 0.07107,6.308317 0.15679,6.831817 0.435938,2.66215803 2.627816,4.840565 5.206543,5.174544 1.994472,0.25831 3.692307,-0.341351 5.126939,-1.81078897 0.454256,-0.465278 0.99757,-1.194622 1.207362,-1.620766 l 0.381406,-0.77480503 0.04494,-6.84 0.04493,-6.8400009 h 1.252269 1.25227 l 0.102792,0.983471 c 0.164284,1.571776 0.118637,11.6874059 -0.05701,12.6346909 -0.268269,1.44678103 -1.198871,3.117085 -2.392548,4.294298 -2.227908,2.197181 -4.852768,2.95905 -8.01976,2.327744 z m 25.288381,-0.240203 c -0.0023,-0.044 -0.0058,-2.996 -0.0078,-6.56 -0.0033,-6.093256 0.01608,-6.543503 0.325455,-7.543989 0.836828,-2.7061849 3.50232,-5.1221059 6.406048,-5.8062489 1.36307,-0.321151 3.547668,-0.318568 4.65096,0.0055 2.938476,0.86311 5.684569,3.740653 5.992172,6.2790029 0.0497,0.410156 0.105332,3.679765 0.123618,7.265802 l 0.03325,6.520064 -1.313392,-6.4e-5 -1.313386,-6.5e-5 -0.04661,-6.68 -0.04661,-6.68 -0.440768,-0.897517 c -0.544026,-1.1077759 -1.909082,-2.4273519 -3.052554,-2.9508509 -2.18507,-1.000358 -5.141318,-0.489552 -6.681827,1.154543 -0.776942,0.829186 -1.175875,1.5366309 -1.564179,2.7738249 -0.609565,1.94216 -0.716704,3.439696 -0.606955,8.48375503 l 0.102777,4.72375497 -1.278008,-0.0038 c -0.702905,-0.0021 -1.279904,-0.03975 -1.282219,-0.08375 z m 25.881245,-0.0141 c -1.96167,-0.462167 -3.27737,-1.95025 -3.77472,-4.26931497 -0.14129,-0.658829 -0.25228,-15.75054593 -0.18441,-25.07659793 0.002,-0.290378 0.10227,-0.317936 1.08197,-0.2977 0.59381,0.01226 1.20565,0.03026 1.35965,0.04 0.26016,0.01646 0.28,0.363503 0.28,4.897712 v 4.88 h 3.26288 c 2.69513,0 3.2783,0.04017 3.35146,0.23083 0.0487,0.126957 0.046,0.738957 -0.006,1.36 l -0.0947,1.12917 h -3.26376 -3.26376 l 0.047,6.2800009 c 0.0643,8.60211 -0.13858,8.232761 4.68696,8.531565 0.88,0.05449 1.61196,0.11018 1.62659,0.123755 0.0325,0.03018 0.086,1.676281 0.067,2.06468 -0.0123,0.253721 -0.22762,0.278491 -2.29364,0.263928 -1.254,-0.0088 -2.55112,-0.07995 -2.88248,-0.158016 z m 13.84826,-0.05803 c -1.7216,-0.538032 -3.08536,-1.800816 -3.98277,-3.68787197 -1.27344,-2.67776203 -0.97817,-5.83531603 0.71493,-7.64537803 1.82283,-1.948758 4.5153,-2.656059 10.0716,-2.645771 1.61124,0.003 2.96103,-0.02608 2.99953,-0.06458 0.0385,-0.0385 -0.0431,-0.401941 -0.18133,-0.8076399 -0.30662,-0.899888 -1.38089,-1.941994 -2.25098,-2.183592 -0.3763,-0.104488 -2.5349,-0.171602 -5.53675,-0.172146 l -4.92,-8.92e-4 v -1.28 -1.28 l 2.68,-0.006 c 1.474,-0.0033 3.724,-0.01075 5,-0.01651 1.276,-0.0058 2.66737,0.07048 3.09193,0.169399 1.77463,0.413481 3.53365,1.756676 4.21928,3.221846 0.61717,1.318856 0.68879,2.3192769 0.68879,9.6206929 v 7.010615 l -5.96,-0.0107 c -4.45617,-0.008 -6.13012,-0.06387 -6.63423,-0.221416 z m 9.87423,-6.72787 v -4.4 h -4.074 c -4.7313,0 -5.22954,0.104184 -6.55031,1.369702 -0.97672,0.935862 -1.36767,1.799536 -1.37218,3.031354 -0.008,2.11274103 0.8633,3.403776 2.75597,4.084913 0.74178,0.266952 1.33391,0.303165 5.04052,0.308258 l 4.2,0.0058 z m 10.36,6.83327 -1.24,-0.04673 v -7.587267 c 0,-9.0131559 -0.0489,-8.7189529 1.74405,-10.4946189 1.55086,-1.535915 2.30143,-1.799161 5.33595,-1.871471 l 2.36,-0.05624 v 1.291529 1.291527 h -0.86842 c -1.21563,0 -3.26153,0.303163 -3.92983,0.582323 -0.72097,0.301164 -1.39715,0.947997 -1.73288,1.657677 -0.23052,0.487298 -0.27556,1.5155079 -0.34689,7.9200009 l -0.082,7.36 z m -68.600002,-9.79327 v -9.7600009 h 1.36 1.36 v 9.7600009 9.76 h -1.36 -1.36 z m 0.392728,-16.8727279 c -0.535107,-0.535107 -0.539531,-1.498759 -0.0097,-2.114714 0.545874,-0.634617 1.568088,-0.634617 2.113962,0 0.529822,0.615955 0.525398,1.579607 -0.0097,2.114714 -0.545757,0.545758 -1.548788,0.545758 -2.094544,0 z"
       id="path870"
       inkscape:connector-curvature="0"
       sodipodi:nodetypes="sssssssssccccccccssssssssssccscccccscccccccccscccccsccscccccssssscccccccccscscccccssccccccsccsccscccscccscsccccsscccccccscccccsccccccccccccccccsccc" />
  </g>
  <path
     style="fill:#000000;stroke-width:0.99999982"
     d="m 151.25211,8.9027745 c 0.005,-1.840859 0.005,-1.864851 0.042,-1.989137 0.12418,-0.457577 0.41465,-0.867015 0.83606,-1.178829 0.26106,-0.193164 0.5359,-0.312693 0.89248,-0.388156 0.16565,-0.03531 0.18924,-0.03659 0.55263,-0.03659 0.40626,7.8e-5 0.57973,0.01574 0.86632,0.0781 0.40365,0.08793 0.72861,0.263011 0.91029,0.490498 l 0.053,0.06602 0.0582,-0.08103 c 0.0839,-0.117149 0.28937,-0.278239 0.45764,-0.358635 0.29513,-0.141352 0.65747,-0.21154 1.1506,-0.222982 0.47965,-0.01105 0.74879,0.03191 1.11406,0.178615 0.24901,0.09996 0.45764,0.222174 0.66108,0.387433 0.32764,0.266328 0.51164,0.532108 0.60899,0.879325 l 0.0367,0.12855 0.005,1.942324 0.005,1.9423245 h -0.5335 -0.53355 V 9.0851435 c 0,-1.013353 -0.005,-1.719554 -0.0157,-1.820705 -0.0367,-0.380924 -0.20706,-0.69466 -0.48961,-0.909229 -0.27364,-0.207797 -0.68788,-0.265435 -1.11678,-0.155517 -0.40418,0.103574 -0.71116,0.386071 -0.84357,0.775857 l -0.042,0.129356 -0.004,1.817859 -0.004,1.8178585 h -0.51636 -0.51636 V 8.9408215 7.1410205 l -0.0367,-0.125784 c -0.0817,-0.261266 -0.31558,-0.533154 -0.59037,-0.685388 -0.22751,-0.126039 -0.44243,-0.179849 -0.71848,-0.179721 -0.1688,1.19e-4 -0.21022,0.0047 -0.32292,0.03616 -0.41413,0.115404 -0.7328,0.453859 -0.85862,0.912513 -0.0262,0.08797 -0.0262,0.276537 -0.0314,1.86334 l -0.005,1.7654525 h -0.0791 c -0.0823,0 -0.64311,0.02084 -0.86035,0.03191 l -0.12576,0.0063 z m -3.69379,1.8368005 c -1.17895,-0.0633 -2.18807,-0.335664 -3.01712,-0.8143115 -0.94606,-0.546191 -1.54926,-1.290919 -1.77888,-2.196201 -0.0817,-0.323456 -0.0954,-0.45129 -0.0954,-0.905796 2.1e-4,-0.479365 0.021,-0.629847 0.13001,-0.995726 0.24533,-0.813604 0.83219,-1.512991 1.72557,-2.057001 0.71822,-0.437338 1.49433,-0.691389 2.44776,-0.801247 0.23801,-0.02722 0.3114,-0.02893 1.73003,-0.03361 l 1.48137,-0.005 v 0.420012 0.420017 l -1.37643,9e-6 c -1.60289,1.3e-5 -1.74344,0.0068 -2.21995,0.105832 -1.20811,0.251312 -2.2892,1.061 -2.67506,2.003527 -0.14521,0.354552 -0.19554,0.654212 -0.18243,1.085255 0.0157,0.487664 0.11159,0.831104 0.34178,1.214088 0.46655,0.776758 1.47415,1.374374 2.68127,1.590559 0.44399,0.07955 0.86285,0.105617 1.69934,0.105918 l 0.61758,1.87e-4 v -1.834235 -1.834236 h -0.87995 -0.87995 v -0.419298 -0.419251 h 1.41276 1.41276 v 2.692394 2.6923945 l -1.19075,-0.0019 c -0.65496,-0.0012 -1.27793,-0.0063 -1.38451,-0.01233 z m 20.30352,-3.8639025 v -3.878097 h 0.50062 0.50062 v 1.238109 1.238109 h 2.66407 2.66406 v -1.238109 -1.238109 h 0.50062 0.50063 v 3.871547 3.8715455 h -0.48436 -0.48439 l -0.004,-2.1978055 -0.004,-2.197808 -2.66003,-0.0033 -2.66008,-0.0033 v 2.207665 2.2076715 h -0.51688 -0.51687 z m -7.05574,-0.124465 v -3.989461 h 0.52463 0.52464 l 0.004,1.280689 0.004,1.280686 0.21808,0.0028 c 1.44501,0.01871 2.49066,0.180785 3.16894,0.491122 0.35646,0.163004 0.72142,0.428478 0.91466,0.664932 0.25633,0.314012 0.4115,0.66058 0.48017,1.07496 0.0314,0.199417 0.0367,0.681597 0.0106,0.86471 -0.10067,0.621368 -0.38582,1.111729 -0.8778,1.508708 -0.58325,0.4706235 -1.34866,0.7363355 -2.29576,0.7969605 -0.11636,0.0076 -0.75235,0.01318 -1.44102,0.01318 h -1.23279 z m 2.69447,3.146054 c 0.49118,-0.06198 0.88581,-0.188952 1.22509,-0.394281 0.60714,-0.367441 0.90548,-0.908545 0.87082,-1.579534 -0.0262,-0.467068 -0.20549,-0.821907 -0.57633,-1.127707 -0.40416,-0.33324 -0.89629,-0.519074 -1.52111,-0.574381 -0.0871,-0.0076 -0.48647,-0.01403 -0.90013,-0.01403 h -0.74334 v 1.851706 c 0,1.018432 0.005,1.856185 0.0106,1.86166 0.005,0.0055 0.33917,0.0072 0.73869,0.0038 0.55781,-0.0047 0.76551,-0.01107 0.8942,-0.02722 z"
     id="path864"
     inkscape:connector-curvature="0" />
</svg>
