<svg width="23.597mm" height="11.904mm" version="1.1" viewBox="0 0 23.596645 11.904237" xmlns="http://www.w3.org/2000/svg"><g transform="matrix(.42184 0 0 .41134 69.797 -24.054)" stroke="#373737" stroke-width=".95274"><path d="m-132.5 79.056c-0.1628-0.11271-0.1628-0.11271-0.78868 0.17529-0.17518-0.0376-0.35047-0.06258-0.51317-0.08769-0.81369-0.4005-1.2643-0.68846-2.178-0.68846 0.025 0.60087 0.0501 1.2143 0.0876 1.8276-0.0501 1.4771 0.71347 1.8025 1.2268 3.1043v1.7524c-0.17529 0.0125-0.33799 0.0376-0.50068 0.0626-1.0015 1.0014-2.0779 1.1891-3.3548 0.62587-0.1627-1.79 1.79-2.1029 0.62587-4.0931-0.46307-0.40046-0.92625-0.78857-1.3893-1.1765-0.68849-1.2393-0.68849-1.5897-1.039-2.103-0.0877-0.26281-0.0877-0.26281-0.70098-0.70098-0.31298 0.18778-0.62588 0.38808-0.93886 0.58838-0.0125 0.20027-0.0125 0.41309-0.0125 0.62588-0.15017 0.02498-0.30038 0.04999-0.43806 0.08759 0.025 0.15021 0.05 0.30038 0.0751 0.45059-0.42557 0.07517-0.42557 0.07517-0.60086 0.25039-0.38797 0.38808-0.48819 0.53828-1.039 0.61335v0.33802h-0.86367v0.52566c-2.7038 0-3.242 2.9667-4.0931 4.9945-0.15021-0.0125-0.28789-0.0251-0.42558-0.0376-0.0375-0.0751-0.0626-0.15021-0.0876-0.22531-0.67597 0.0626-1.2518 0.48819-1.9151 0.48819-0.17529-0.17529-0.17529-0.17529-1.4771-0.35051 0.55078-2.6913 3.1795-2.8915 3.6176-5.7578 1.1141-2.2907 1.1141-2.2907 1.1642-2.7664-0.3505 0-0.52579 0.17522-1.5648 0.17522-0.0625-0.06262-0.12509-0.12513-0.17518-0.17522-0.55077 0.2754-0.60086 0.30042-0.78857 0.8762-1.1517 0.35047-1.6148 0.10019-2.6913 0-0.0375 0.07517-0.0751 0.16276-0.11267 0.25036-1.1391-0.71347-1.6272-1.114-2.9541-1.1515-0.025 0.12509-0.0501 0.25029-0.0626 0.37548-1.5521 0.77605-3.0417-0.12519-4.6939-0.35051-0.77605-0.58838-1.1516-0.26288-2.0904-0.26288-1.2267-0.71347-1.6272-0.85115-1.7524-2.2656 1.4269-0.23787 1.5897-0.92636 2.4284-2.0904 1.6023-1.0264 3.0543-1.2642 3.9305-3.1169 0.42558-1.9527 1.5521-3.3171 2.0904-5.2072 0.26288-0.41298 0.5258-0.82607 0.78857-1.2266 0.53829 0 0.651 0 1.0766 0.30038 0.42558-0.26288 0.86368-0.52569 1.3017-0.77608 3.5301-1.1015 5.8707-4.2307 9.7889-3.7802 0.30038-0.30038 3.8928-0.17529 4.6064-0.17529v0.35047c0.43809 0 0.68838-0.17518 0.95126-0.08759 0.87627 1.1642 5.1698 2.0278 6.6094 2.178 0.6384 0.93885 1.502 1.1891 2.6036 1.5647 0.0501-0.06258 0.11271-0.1252 0.17529-0.17529 1.6898 0.38808 1.6898 0.38808 2.178 0.35051v0.33799c1.377 0.1252 2.0029 0.31297 3.0793 1.139-0.0876 0.1628-0.16266 0.3255-0.23777 0.50078 2.1279 1.3269 3.1919 2.4283 5.4199 1.1516 0.68849 0 0.86378-0.17518 1.3895-0.17518 0.17529 0.17518 2.4284 0.77605 3.1294 1.1266 1.0138 1.1266 1.79 2.8665 3.5548 2.8665-0.1252 0.77605-0.60087 0.87616-1.3018 0.87616-0.0375 0.0877-0.0751 0.17529-0.10008 0.26288-1.9402 0.25039-3.5552-1.3144-4.8819-2.491-0.75107-0.12509-1.4521-0.47556-2.1405-0.56326-0.31291 0.21279-0.31291 0.21279-0.96387 0.35047 0.13769 1.1892 1.4145 1.8651 2.0904 2.8665-0.4381 0.1252-0.4381 0.1252-0.52569 0.35058 0.17519 0.28789 0.35051 0.57578 0.52569 0.86368-0.25028 0.3255-0.33798 0.36299-0.26281 0.78857h-0.26288c0 0.48819-0.0125 1.3645 0.17519 1.8275-0.11257 0.11271-0.22528 0.22538-0.33799 0.35051 0.0376 0.13768 0.0752 0.28786 0.1252 0.43817-1.3269 1.2642-0.98888 1.84 0.82618 1.9902 1.1016 1.4521 0.53828 3.4799 0.77608 5.3074 0.37559 0.37559 0.27537 1.79-0.0626 2.2281-0.21278-0.0501-0.42557-0.10008-0.62587-0.15018-0.025 0.13769-0.05 0.27537-0.0751 0.42558-0.66337 0.33798-1.2892 0.62587-2.0153 0.62587-0.025-0.2003-0.0375-0.38807-0.05-0.57578-0.2754 0.18771-0.55081 0.37548-0.81369 0.57578 0-0.83866 0.1252-1.7023 0.87627-2.1655 1.3143-2.8665 0.26281-4.2184-2.8791-3.9178-0.17519-0.17529-0.17519-0.17529-1.8275-0.52576 0 0.70098 0.0376 1.0015-0.35047 1.5773-1.2142 0.72596-2.1029 1.5271-3.1294 2.5035-0.23776 0.5633-0.51317 1.8525-1.3894 1.5647-0.0375-0.0751-0.0625-0.15021-0.0876-0.22531-0.87616 0.4757-2.5661 1.039-3.3797 0.22531 0.28786-0.62587 0.57575-1.2393 0.86364-1.8525 1.9903-1.0265 3.1294-1.2894 3.1294-3.6176-0.81369-0.47567-1.6148-1.5146-2.3282-1.8526-0.10022 0.15017-0.18781 0.30048-0.2754 0.46318-0.60087 0.10008-0.80117 0.25039-1.2769 0.63836-0.1627-0.0751-0.31287-0.15021-0.46308-0.21279z" fill="none" stroke="#373737" stroke-width=".95274"/></g></svg>
