<?xml version="1.0" encoding="UTF-8" standalone="no"?>
<svg xmlns="http://www.w3.org/2000/svg" height="40" viewBox="0 0 145 40" width="145" version="1.1">
    <g transform="translate(-7.4481 29.914)">
        <path d="m25.503 5.2071c-3.1313-0.25528-5.5913-1.2877-8.2794-3.4748-2.4266-1.9743-4.1023-4.6584-5.0186-8.0385-0.42883-1.5819-0.38384-5.5551 0.08243-7.28 1.4494-5.3618 6.0194-9.7392 11.377-10.897 1.2316-0.26625 5.082-0.30286 6.2001-0.05896 2.8763 0.62743 5.1469 1.8238 7.3207 3.8573 2.8553 2.671 4.4776 6.137 4.6765 9.9916 0.19043 3.6895-0.71591 6.7786-2.8511 9.7175l-0.79191 1.09 0.60481 0.68639c0.33264 0.37751 1.2787 1.417 2.1024 2.31l1.4976 1.6236h-3.689l-1.262-1.3623-1.262-1.3615-1.338 0.8802c-2.7351 1.7994-5.952 2.5946-9.3694 2.316zm4.1653-2.8193c4.8633-1.0904 8.8321-5.4555 9.5242-10.475 0.55896-4.054-0.80716-7.8651-3.8706-10.798-2.2569-2.1608-4.537-3.1627-7.6536-3.3631-4.1252-0.26526-7.8489 1.3604-10.467 4.5697-1.8397 2.2551-2.6381 4.3369-2.7699 7.2222-0.16584 3.6308 0.89902 6.5811 3.3103 9.1712 3.0865 3.3155 7.4833 4.6697 11.927 3.6735zm24.868 2.4262c-3.2955-0.65691-6.1039-3.4304-6.7055-6.622-0.09278-0.49227-0.16243-3.5969-0.16243-7.24v-6.3782h2.56l0.00096 5.88c0.00048 3.234 0.07107 6.3083 0.15679 6.8318 0.43594 2.6622 2.6278 4.8406 5.2065 5.1745 1.9945 0.25831 3.6923-0.34135 5.1269-1.8108 0.45426-0.46528 0.99757-1.1946 1.2074-1.6208l0.38141-0.77481 0.04494-6.84 0.04493-6.84h2.5046l0.10279 0.98347c0.16428 1.5718 0.11864 11.687-0.05701 12.635-0.26827 1.4468-1.1989 3.1171-2.3925 4.2943-2.2279 2.1972-4.8528 2.959-8.0198 2.3277zm25.288-0.2402c-0.0023-0.044-0.0058-2.996-0.0078-6.56-0.0033-6.0933 0.01608-6.5435 0.32546-7.544 0.83683-2.7062 3.5023-5.1221 6.406-5.8062 1.3631-0.32115 3.5477-0.31857 4.651 0.0055 2.9385 0.86311 5.6846 3.7407 5.9922 6.279 0.0497 0.41016 0.10533 3.6798 0.12362 7.2658l0.03325 6.5201-1.3134-0.000064-1.3134-0.000065-0.04661-6.68-0.04661-6.68-0.44077-0.89752c-0.54403-1.1078-1.9091-2.4274-3.0526-2.9509-2.1851-1.0004-5.1413-0.48955-6.6818 1.1545-0.77694 0.82919-1.1759 1.5366-1.5642 2.7738-0.60956 1.9422-0.7167 3.4397-0.60696 8.4838l0.10278 4.7238-1.278-0.0038c-0.7029-0.0021-1.2799-0.03975-1.2822-0.08375zm25.881-0.0141c-1.9617-0.46217-3.2774-1.9502-3.7747-4.2693-0.14129-0.65883-0.25228-15.751-0.18441-25.077 0.002-0.29038 0.10227-0.31794 1.082-0.2977 0.59381 0.01226 1.2056 0.03026 1.3596 0.04 0.26016 0.01646 0.28 0.3635 0.28 4.8977v4.88h3.2629c2.6951 0 3.2783 0.04017 3.3515 0.23083 0.0487 0.12696 0.046 0.73896-0.006 1.36l-0.0947 1.1292h-6.5276l0.047 6.28c0.0643 8.6021-0.13858 8.2328 4.687 8.5316 0.88 0.05449 1.612 0.11018 1.6266 0.12376 0.0325 0.03018 0.086 1.6763 0.067 2.0647-0.0123 0.25372-0.22762 0.27849-2.2936 0.26393-1.254-0.0088-2.5511-0.07995-2.8825-0.15802zm13.848-0.05803c-1.7216-0.53803-3.0854-1.8008-3.9828-3.6879-1.2734-2.6778-0.97817-5.8353 0.71493-7.6454 1.8228-1.9488 4.5153-2.6561 10.072-2.6458 1.6112 0.003 2.961-0.02608 2.9995-0.06458s-0.0431-0.40194-0.18133-0.80764c-0.30662-0.89989-1.3809-1.942-2.251-2.1836-0.3763-0.10449-2.5349-0.1716-5.5368-0.17215l-4.92-0.000892v-2.56l2.68-0.006c1.474-0.0033 3.724-0.01075 5-0.01651 1.276-0.0058 2.6674 0.07048 3.0919 0.1694 1.7746 0.41348 3.5336 1.7567 4.2193 3.2218 0.61717 1.3189 0.68879 2.3193 0.68879 9.6207v7.0106l-5.96-0.0107c-4.4562-0.008-6.1301-0.06387-6.6342-0.22142zm9.8742-6.7279v-4.4h-4.074c-4.7313 0-5.2295 0.10418-6.5503 1.3697-0.97672 0.93586-1.3677 1.7995-1.3722 3.0314-0.008 2.1127 0.8633 3.4038 2.756 4.0849 0.74178 0.26695 1.3339 0.30316 5.0405 0.30826l4.2 0.0058zm10.36 6.8333-1.24-0.04673v-7.5873c0-9.0132-0.0489-8.719 1.744-10.495 1.5509-1.5359 2.3014-1.7992 5.336-1.8715l2.36-0.05624v2.583h-0.86842c-1.2156 0-3.2615 0.30316-3.9298 0.58232-0.72097 0.30116-1.3972 0.948-1.7329 1.6577-0.23052 0.4873-0.27556 1.5155-0.34689 7.92l-0.082 7.36zm-68.6-9.7933v-9.76h2.72v19.52h-2.72zm0.39273-16.873c-0.53511-0.53511-0.53953-1.4988-0.0097-2.1147 0.54587-0.63462 1.5681-0.63462 2.114 0 0.52982 0.61596 0.5254 1.5796-0.0097 2.1147-0.54576 0.54576-1.5488 0.54576-2.0945 0z" fill="#95dd2e"/>
    </g>
</svg>
